<svg width="4289" height="2413" xmlns="http://www.w3.org/2000/svg" xmlns:xlink="http://www.w3.org/1999/xlink" xml:space="preserve" overflow="hidden"><g transform="translate(-48 -40)"><text font-family="Segoe UI,Segoe UI_MSFontService,sans-serif" font-weight="400" font-size="28" transform="matrix(1 0 0 1 65.3125 2430)">©Mitsubishi</text><text font-family="Segoe UI,Segoe UI_MSFontService,sans-serif" font-weight="400" font-size="28" transform="matrix(1 0 0 1 221.719 2430)">Electric</text><text font-family="Segoe UI,Segoe UI_MSFontService,sans-serif" font-weight="400" font-size="28" transform="matrix(1 0 0 1 315.104 2430)">Corporation</text><path d="M1982.5 1798.5 2027.5 1798.5 2027.5 1803.5 1982.5 1803.5Z" stroke="#000000" stroke-width="0.458333" stroke-miterlimit="8" fill-rule="evenodd"/><path d="M1984.5 1817.5 2025.5 1817.5 2025.5 1822.5 1984.5 1822.5Z" stroke="#000000" stroke-width="0.458333" stroke-miterlimit="8" fill-rule="evenodd"/><path d="M1979.5 1838.5 2030.5 1838.5 2030.5 1843.5 1979.5 1843.5Z" stroke="#000000" stroke-width="0.458333" stroke-miterlimit="8" fill-rule="evenodd"/><path d="M2304.91 1836.1C2304.91 1836.1 2303.31 1840.9 2300.98 1835.97 2300.98 1835.97 2298.49 1831.1 2297.26 1823.74 2297.26 1823.74 2295.96 1814.87 2295.53 1808.21L2309.61 1808.15 2309.61 1802.67 2303.83 1802.67 2307.74 1800.13C2306.82 1798.59 2302.99 1794.13 2301.87 1793.5L2297.54 1795.74C2297.54 1795.74 2302.46 1801.2 2302.58 1802.65L2295.21 1802.67C2295.14 1800.16 2294.87 1796.01 2295 1793.52L2289.23 1793.52C2289.23 1793.52 2289.28 1798.16 2289.46 1802.62L2259.5 1802.62 2259.5 1808.15 2289.87 1808.15C2290.28 1813.96 2291.22 1823.72 2292.27 1826.78 2292.27 1826.78 2294.18 1838.73 2299.36 1843.66 2299.36 1843.66 2303.49 1848.17 2307.64 1843.07 2307.64 1843.07 2309.7 1840.31 2311.5 1833.91L2307.28 1828.31C2307.32 1828.29 2306.32 1832.73 2304.91 1836.1" stroke="#000000" stroke-width="0.458333" stroke-miterlimit="8" fill-rule="evenodd"/><path d="M2277.2 1820.92 2286.83 1820.92 2286.83 1815.5 2261.6 1815.5 2261.6 1820.92 2271.69 1820.92 2271.69 1836.09C2266.53 1836.99 2262.9 1837.33 2259.5 1837.65L2260.14 1843.5C2260.14 1843.5 2280.53 1840.33 2288.5 1837.9L2288.5 1832.37C2288.5 1832.37 2283.82 1833.77 2277.2 1835.04L2277.2 1820.92Z" stroke="#000000" stroke-width="0.458333" stroke-miterlimit="8" fill-rule="evenodd"/><path d="M2327.79 1809.1C2334.02 1805.65 2340.66 1798.85 2340.66 1798.85 2345.01 1804.07 2353.66 1809.1 2353.66 1809.1L2327.79 1809.1ZM2343.1 1793.5 2337.72 1793.5C2337.72 1793.5 2330.93 1803.74 2314.5 1808.96 2314.5 1808.96 2316.63 1814.15 2317.12 1814.5 2317.12 1814.5 2322.66 1812.13 2325.53 1810.52L2325.53 1814.08 2355.43 1814.08 2355.43 1809.94C2355.43 1809.94 2358.16 1811.4 2364.12 1813.41L2366.5 1808.28C2366.48 1808.31 2352.33 1804.75 2343.1 1793.5" stroke="#000000" stroke-width="0.458333" stroke-miterlimit="8" fill-rule="evenodd"/><path d="M2349.82 1826.61 2345.62 1829.52C2345.62 1829.52 2349.43 1832.77 2351.96 1835.68 2351.96 1835.68 2342.94 1837.03 2331.64 1837.46 2331.64 1837.46 2335.38 1831.12 2338.49 1824.57L2364.25 1824.57 2364.25 1819.5 2316.5 1819.5 2316.5 1824.57 2332.2 1824.57C2332.2 1824.57 2328.32 1833.57 2325.18 1837.63 2325.18 1837.63 2318.3 1838.08 2317.74 1837.94L2318.76 1843.34C2318.76 1843.34 2347.47 1841.97 2355.95 1839.92 2355.95 1839.92 2359.22 1843.43 2360.15 1844.5L2364.5 1841.08C2364.5 1841.08 2355.12 1830.34 2349.82 1826.61" stroke="#000000" stroke-width="0.458333" stroke-miterlimit="8" fill-rule="evenodd"/><path d="M2395.5 1825.92C2395.5 1825.92 2387.11 1819.71 2386.15 1817.63 2386.15 1817.63 2391.53 1809.88 2392.09 1807.41L2392.09 1802.51 2384.07 1802.51 2384.07 1793.5 2378.51 1793.5 2378.51 1802.44 2369.83 1802.44 2369.83 1807.82 2386.22 1807.82C2386.22 1807.82 2381.71 1818.13 2368.5 1827.34L2370.86 1832.84C2370.86 1832.84 2377.2 1827.78 2379.04 1825.72L2379.04 1846.5 2384.26 1846.5 2384.26 1823.04C2384.26 1823.04 2389.17 1828.28 2392.3 1830.25L2395.5 1825.92Z" stroke="#000000" stroke-width="0.458333" stroke-miterlimit="8" fill-rule="evenodd"/><path d="M2409.19 1838.38 2409.19 1812.74 2419.92 1812.74 2419.92 1807.58 2409.19 1807.58 2409.19 1794.5 2403.8 1794.5 2403.8 1807.58 2393.71 1807.58 2393.71 1812.74 2403.8 1812.74 2403.8 1838.38 2390.5 1838.38 2390.5 1843.5 2421.5 1843.5 2421.5 1838.38Z" stroke="#000000" stroke-width="0.458333" stroke-miterlimit="8" fill-rule="evenodd"/><path d="M2035.5 1824.77 2037.94 1829.5C2037.94 1829.5 2050.07 1828.45 2058.16 1817.8L2065.66 1817.8 2065.68 1822.53C2065.68 1825.04 2066.98 1825.75 2069.65 1825.75L2081.76 1825.75C2084.79 1825.75 2086.82 1823.81 2086.82 1821.85L2087.02 1820.41 2081.57 1818.76 2081.3 1820.59C2081.14 1821.66 2079.95 1821.8 2079.45 1821.8L2072.55 1821.8C2071.06 1821.8 2070.81 1821.28 2070.81 1820.5L2070.81 1817.78 2087.5 1817.78 2087.5 1813.62 2064.38 1813.62 2064.38 1810.65 2083.62 1810.65 2083.62 1806.56 2064.38 1806.56 2064.38 1803.5 2059.14 1803.5 2059.14 1806.45 2040.26 1806.45 2040.26 1810.67 2059.14 1810.67 2059.14 1813.64 2036.07 1813.64 2036.07 1817.8 2051.48 1817.8C2051.48 1817.78 2049.41 1822.44 2035.5 1824.77" stroke="#000000" stroke-width="0.458333" stroke-miterlimit="8" fill-rule="evenodd"/><path d="M2048.13 1805.5 2053.49 1805.5 2053.49 1801.91 2069.3 1801.91 2069.3 1805.5 2074.59 1805.5 2074.59 1801.91 2087.5 1801.91 2087.5 1797.26 2074.59 1797.21 2074.59 1793.5 2069.3 1793.5 2069.3 1797.18 2053.49 1797.18 2053.49 1793.5 2048.06 1793.5 2048.06 1797.26 2035.5 1797.26 2035.5 1801.91 2048.13 1801.91Z" stroke="#000000" stroke-width="0.458333" stroke-miterlimit="8" fill-rule="evenodd"/><path d="M2062.11 1837.59C2058.94 1836.65 2055.52 1834.64 2054.06 1832.84L2070.94 1832.84C2069.29 1834.44 2065.48 1836.29 2062.11 1837.59M2069.59 1839.37C2071.24 1838.47 2077.87 1834.03 2078.99 1832.43L2078.99 1828.75 2058.44 1828.8C2060.27 1827.4 2061.12 1826.32 2062.77 1824.45L2057.31 1823.5C2057.31 1823.5 2052.68 1830.49 2035.71 1834.03L2038.18 1838.45C2038.18 1838.45 2043.05 1837.59 2049.17 1835.02 2049.17 1835.02 2051.3 1836.69 2055 1839.51 2046.1 1841.67 2040.11 1841.47 2035.5 1841.47L2038.07 1846.5C2045.89 1846.27 2054.31 1844.56 2061.67 1842.49 2062.98 1842.87 2066.95 1843.97 2068.42 1844.22 2068.42 1844.22 2079.82 1846.39 2085.21 1846.23L2087.5 1840.8C2083.49 1840.77 2074.49 1840.82 2069.59 1839.37" stroke="#000000" stroke-width="0.458333" stroke-miterlimit="8" fill-rule="evenodd"/><path d="M2098.5 1809.5 2111.5 1809.5 2111.5 1811.5 2098.5 1811.5Z" stroke="#000000" stroke-width="0.458333" stroke-miterlimit="8" fill-rule="evenodd"/><path d="M2098.5 1814.5 2111.5 1814.5 2111.5 1816.5 2098.5 1816.5Z" stroke="#000000" stroke-width="0.458333" stroke-miterlimit="8" fill-rule="evenodd"/><path d="M2121.5 1809.5 2134.5 1809.5 2134.5 1811.5 2121.5 1811.5Z" stroke="#000000" stroke-width="0.458333" stroke-miterlimit="8" fill-rule="evenodd"/><path d="M2121.5 1814.5 2134.5 1814.5 2134.5 1816.5 2121.5 1816.5Z" stroke="#000000" stroke-width="0.458333" stroke-miterlimit="8" fill-rule="evenodd"/><path d="M2136.73 1842.19C2136.55 1842.95 2136.09 1844.2 2133.65 1844.2L2120.7 1844.2C2118.83 1844.2 2118.56 1843.58 2118.56 1842.55L2118.56 1840.53 2137 1840.53C2136.98 1840.53 2136.82 1841.74 2136.73 1842.19M2118.53 1832.95 2132.69 1832.95 2132.69 1836.55 2118.53 1836.55 2118.53 1832.95ZM2118.53 1826.33 2132.69 1826.33 2132.69 1829.37 2118.53 1829.37 2118.53 1826.33ZM2113.36 1829.39 2099.43 1829.37 2099.43 1826.33 2113.36 1826.33 2113.36 1829.39M2113.36 1836.57 2099.43 1836.57 2099.43 1832.97 2113.36 1832.97 2113.36 1836.57ZM2137.62 1822.5 2094.5 1822.5 2094.5 1843.69 2099.45 1843.69 2099.45 1840.51 2113.38 1840.51 2113.38 1844.41C2113.38 1847.36 2115.23 1848.5 2119.15 1848.5L2134.41 1848.5C2134.41 1848.5 2141.61 1848.3 2142.09 1843.33L2142.5 1839.33 2137.64 1837.54 2137.64 1822.5" stroke="#000000" stroke-width="0.458333" stroke-miterlimit="8" fill-rule="evenodd"/><path d="M2096.34 1806.56 2113.61 1806.56 2113.61 1817.5 2118.75 1817.5 2118.75 1806.56 2136.66 1806.56 2136.66 1815.61 2141.5 1815.61 2141.5 1802.37 2118.75 1802.37 2118.75 1799.78 2138.77 1799.78 2138.77 1795.5 2093.98 1795.5 2093.98 1799.78 2113.61 1799.78 2113.61 1802.37 2091.5 1802.37 2091.5 1815.61 2096.34 1815.61Z" stroke="#000000" stroke-width="0.458333" stroke-miterlimit="8" fill-rule="evenodd"/><path d="M2183.2 1817.31 2187.54 1817.17 2189.12 1820.86 2183.74 1820.86C2183.45 1820.18 2183.2 1817.31 2183.2 1817.31M2182.78 1813.37C2182.42 1810.13 2182.26 1802.69 2182.26 1802.69 2185 1805.02 2188 1809.39 2188 1809.39 2186.53 1811.72 2184.52 1813.39 2184.52 1813.39L2182.78 1813.39M2163.74 1814.32 2162.46 1814.32 2162.46 1816.31C2160.22 1814.77 2157.98 1809.5 2157.98 1809.5L2162.28 1809.5 2162.28 1805.97C2163.31 1806.6 2166.42 1810.65 2166.42 1810.65 2165.8 1812.08 2163.74 1814.32 2163.74 1814.32M2160.59 1821.99 2162.69 1818.57 2173.5 1817.53 2174.3 1819.64 2178.39 1818.03C2178.6 1819.37 2178.74 1820.91 2178.74 1820.91L2161.39 1820.91 2161.39 1825.52 2165.98 1825.52C2166.03 1835.5 2159.63 1841.23 2159.63 1841.23L2163.26 1845.66C2168.06 1841.27 2170.05 1833.1 2170.05 1833.1 2172.59 1834.03 2176.02 1837.29 2176.02 1837.29L2178.65 1832.92C2176.93 1831.16 2171.06 1827.79 2171.06 1827.79L2171.17 1825.52 2179.63 1825.52C2180.96 1831.22 2182.94 1834.85 2182.94 1834.85 2179.49 1838.04 2171.15 1840.66 2171.15 1840.66L2174.17 1845.41C2179.22 1844.08 2185.62 1839.39 2185.62 1839.39 2187.15 1841.48 2190.17 1844.06 2190.17 1844.06 2194.83 1847.34 2197.25 1843.72 2197.25 1843.72 2198.72 1841.84 2200.5 1837.9 2200.5 1837.9L2196.45 1833.58C2195.63 1836.07 2194.26 1838.4 2194.26 1838.4 2192.68 1840.19 2190.88 1837.79 2190.88 1837.79 2189.82 1836.63 2189.73 1836.07 2189.73 1836.07 2192.36 1833.53 2195.4 1829.1 2195.4 1829.1L2191.15 1826.04C2190.44 1827.92 2186.94 1831.84 2186.94 1831.84 2185.34 1829.55 2184.64 1825.52 2184.64 1825.52L2199.52 1825.52 2199.52 1820.91 2194.08 1820.91C2192.84 1818.64 2192.18 1816.9 2192.18 1816.9L2195.59 1816.45C2195.93 1817.17 2196.41 1818.53 2196.41 1818.53L2200.04 1817.08C2199.04 1812.92 2198.85 1812.89 2197.32 1809L2193.69 1810.13 2194.6 1812.89 2189.98 1813.39C2191.36 1812.01 2197.32 1804.45 2198.35 1802.96L2194.6 1800.79C2194.35 1801.26 2191.42 1805.29 2190.97 1805.88L2189.25 1803.91C2191.61 1800.72 2194.12 1796.03 2194.12 1796.03L2189.85 1794.2C2189.41 1795.24 2187.79 1798.8 2186.51 1800.47 2186.17 1800.11 2185.09 1799.18 2185.09 1799.18L2182.24 1802.35 2181.96 1793.57 2176.98 1793.57C2176.98 1804.95 2178.14 1816.81 2178.14 1816.81 2176.59 1813.17 2175.67 1809.82 2175.67 1809.82L2172.22 1810.7 2173.02 1813.82 2168.68 1814.21C2171.29 1811.22 2176.73 1803.16 2176.73 1803.16L2172.91 1801.08C2171.81 1802.73 2169.3 1806.85 2169.3 1806.85L2167.67 1804.97C2170.26 1801.08 2172.52 1796.17 2172.52 1796.17L2168.27 1794.56C2166.39 1798.91 2164.56 1801.83 2164.56 1801.83 2164.27 1801.38 2163.1 1800.67 2163.1 1800.67L2160.47 1804.45 2157.73 1804.45 2157.73 1793.5 2152.75 1793.5 2152.75 1804.43 2147.1 1804.43 2147.1 1809.48 2152.75 1809.48C2152.75 1809.48 2150.51 1818.44 2145.5 1825.39L2147.72 1831.61C2147.72 1831.61 2150.39 1827.76 2152.75 1821.06 2152.86 1820.81 2153.07 1820.07 2153.07 1820.07 2153.07 1820.07 2152.81 1822.9 2152.75 1824.19L2152.75 1846.5 2157.73 1846.48 2157.73 1820.7C2157.73 1819.8 2157.41 1816.13 2157.41 1816.13 2157.87 1817.49 2157.75 1817.44 2160.59 1821.99" stroke="#000000" stroke-width="0.458333" stroke-miterlimit="8" fill-rule="evenodd"/><path d="M2236.76 1814.43 2223.08 1814.43 2223.08 1818.7C2220.92 1815.77 2218.82 1813.19 2217.48 1809.62L2222.26 1809.62 2222.26 1809.44 2226.46 1812.88C2228.48 1809.74 2229.62 1807.16 2229.62 1807.16L2236.76 1807.16 2236.76 1814.43ZM2212.48 1818.68C2212.48 1818.68 2212.19 1821.98 2212.16 1823.08L2212.16 1846.5 2217.32 1846.5 2217.32 1820.94C2217.29 1819.85 2217 1816.58 2217 1816.58 2217 1816.58 2217.27 1818.54 2222.1 1825.07L2224.84 1820.46 2223.74 1819.4 2235.05 1819.4C2230.88 1829.56 2219.89 1837.49 2219.89 1837.49L2223.36 1841.8C2231.27 1836.29 2236.74 1825.77 2236.74 1825.77L2236.74 1846.41 2241.64 1846.41 2241.64 1825.52C2244.12 1829.56 2247.33 1835.55 2254.33 1841.26L2257.5 1836.25C2249.77 1830.38 2244.71 1822.74 2243.14 1819.27L2256.29 1819.27 2256.29 1814.43 2241.64 1814.43 2241.64 1807.16 2253.72 1807.16 2253.72 1802.33 2241.64 1802.33 2241.64 1793.5 2236.74 1793.5 2236.74 1802.33 2231.31 1802.33C2231.61 1801.2 2232.93 1796.23 2232.93 1796.23L2227.98 1795.06C2226.39 1804.18 2223.13 1808.11 2222.24 1809.06L2222.24 1804.66 2217.32 1804.66 2217.32 1793.61 2212.16 1793.61 2212.16 1804.63 2203.84 1804.63 2203.84 1809.62 2211.75 1809.62C2211.75 1809.62 2209.45 1818.09 2202.5 1826.24L2204.89 1831.71C2209.98 1825.05 2211.82 1820.64 2212.48 1818.68" stroke="#000000" stroke-width="0.458333" stroke-miterlimit="8" fill-rule="evenodd"/><rect x="1052.5" y="1266.5" width="2294" height="6.00024" stroke="#E60012" stroke-width="0.458333" stroke-miterlimit="8" fill="#E60012"/><path d="M4024.17 185.026C4023.98 185.541 4023.08 186.739 4021.44 188.612 4019.68 190.619 4018.5 191.623 4017.9 191.623 4017.47 191.623 4017.29 191.308 4017.36 190.686 4017.5 189.141 4018.07 187.528 4019.05 185.842 4020.23 183.849 4021.51 182.858 4022.88 182.858 4023.45 182.858 4024.04 183.032 4024.64 183.387L4024.17 185.026ZM4027.58 179.527C4025.81 179.487 4024.27 179.587 4023.4 179.587 4020.7 179.587 4018.08 181.046 4015.54 183.942 4013.13 186.685 4011.8 189.435 4011.53 192.218 4011.41 193.342 4011.64 194.319 4012.21 195.162 4012.83 196.045 4013.67 196.5 4014.76 196.5 4016.25 196.5 4017.85 195.637 4019.54 193.931 4020.86 192.58 4022 191.027 4022.92 189.275L4023.28 189.275 4020.93 196.125 4026.59 196.125 4031.5 179.5C4030.59 179.5 4029.43 179.567 4027.58 179.527" stroke="#666666" stroke-width="0.458333" stroke-miterlimit="8" fill="#666666" fill-rule="evenodd"/><path d="M4063.21 185.051C4063.01 185.726 4062.09 186.942 4060.47 188.692 4058.8 190.489 4057.69 191.394 4057.13 191.394 4056.8 191.394 4056.65 191.07 4056.73 190.428 4056.87 188.942 4057.41 187.381 4058.37 185.753 4059.48 183.841 4060.68 182.882 4061.98 182.882 4062.6 182.882 4063.17 183.024 4063.7 183.322L4063.21 185.051ZM4066.56 179.505C4064.87 179.477 4062.75 179.579 4062.75 179.579 4060.02 179.579 4057.4 180.95 4054.9 183.686 4052.5 186.301 4051.17 189.043 4050.89 191.881 4050.78 193.083 4051 194.069 4051.58 194.86 4052.2 195.718 4053.08 196.15 4054.23 196.15 4057 196.15 4059.58 193.894 4062.01 189.381L4062.68 189.381C4062.29 190.665 4061.9 191.948 4061.49 193.232 4060.91 195.049 4060.28 196.413 4059.62 197.332 4058.71 198.595 4057.61 199.231 4056.34 199.231 4054.43 199.231 4052.14 198.562 4049.5 197.204L4049.93 202.041C4051.34 202.352 4053.09 202.5 4055.17 202.5 4061.1 202.5 4064.74 200.062 4066.09 195.197L4070.5 179.505C4069.64 179.505 4068.3 179.532 4066.56 179.505" stroke="#666666" stroke-width="0.458333" stroke-miterlimit="8" fill="#666666" fill-rule="evenodd"/><path d="M4076.75 187.344C4076.99 186.379 4077.43 185.495 4078.05 184.658 4078.79 183.646 4079.57 183.13 4080.4 183.13 4081.15 183.13 4081.5 183.526 4081.42 184.343 4081.24 186.352 4079.68 187.344 4076.75 187.344M4078.66 193.057C4076.81 193.057 4075.95 192.233 4076.08 190.592 4078.32 190.592 4080.49 189.942 4082.6 188.65 4084.98 187.163 4086.27 185.334 4086.48 183.144 4086.59 181.999 4086.24 181.108 4085.42 180.424 4084.67 179.801 4083.74 179.5 4082.63 179.5 4079.7 179.5 4077.02 180.652 4074.6 182.97 4072.18 185.281 4070.82 187.98 4070.53 191.055 4070.36 192.823 4070.92 194.189 4072.2 195.181 4073.31 196.051 4074.74 196.5 4076.53 196.5 4078.74 196.5 4081.51 195.897 4084.81 194.712L4085.96 190.679C4083.07 192.26 4080.63 193.057 4078.66 193.057" stroke="#666666" stroke-width="0.458333" stroke-miterlimit="8" fill="#666666" fill-rule="evenodd"/><path d="M4103.5 179.996 4102.51 183.504C4101.23 183.021 4100.09 182.759 4099.09 182.759 4097.64 182.759 4096.85 183.269 4096.76 184.255 4096.72 184.717 4097.07 185.314 4097.83 186.065 4099.05 187.239 4099.76 187.943 4099.95 188.178 4100.69 189.137 4101.01 190.109 4100.9 191.102 4100.73 193.006 4099.79 194.408 4098.11 195.354 4096.75 196.118 4095.08 196.5 4093.11 196.5 4091.59 196.5 4089.71 196.205 4087.5 195.615L4088.59 191.799C4090.63 192.765 4092.24 193.241 4093.41 193.241 4093.86 193.241 4094.28 193.094 4094.66 192.805 4095.04 192.524 4095.25 192.161 4095.29 191.699 4095.34 191.102 4095.03 190.404 4094.34 189.6 4093.69 188.889 4093.04 188.158 4092.4 187.433 4091.71 186.494 4091.41 185.522 4091.5 184.543 4091.67 182.746 4092.61 181.411 4094.34 180.539 4095.68 179.842 4097.29 179.5 4099.19 179.5 4099.47 179.5 4100.9 179.654 4103.5 179.996" stroke="#666666" stroke-width="0.458333" stroke-miterlimit="8" fill="#666666" fill-rule="evenodd"/><path d="M4132.5 173.192 4131.48 176.618C4130.14 176.012 4128.9 175.7 4127.77 175.7 4126.66 175.7 4125.85 176.119 4125.31 176.944 4125.06 177.343 4124.75 178.241 4124.34 179.677L4128.64 179.677 4127.64 182.89 4123.41 182.89 4118.37 199.5 4112.5 199.5 4118.53 179.677C4119.34 177.469 4120.59 175.726 4122.27 174.456 4124.03 173.152 4126.05 172.5 4128.35 172.5 4129.84 172.507 4131.22 172.74 4132.5 173.192" stroke="#666666" stroke-width="0.458333" stroke-miterlimit="8" fill="#666666" fill-rule="evenodd"/><path d="M4138.48 190.472C4137.48 192.193 4136.3 193.057 4134.92 193.057 4134.21 193.057 4133.69 192.729 4133.37 192.079 4133.1 191.544 4133.01 190.867 4133.09 190.063 4133.23 188.429 4133.71 186.922 4134.51 185.508 4135.49 183.8 4136.68 182.943 4138.08 182.943 4138.81 182.943 4139.33 183.251 4139.65 183.901 4139.91 184.43 4139.99 185.106 4139.91 185.95 4139.76 187.538 4139.29 189.052 4138.48 190.472M4143.83 180.806C4142.72 179.928 4141.28 179.5 4139.52 179.5 4136.62 179.5 4133.96 180.652 4131.56 182.97 4129.15 185.281 4127.81 187.98 4127.53 191.055 4127.37 192.823 4127.91 194.189 4129.17 195.181 4130.29 196.051 4131.72 196.5 4133.48 196.5 4136.34 196.5 4138.99 195.315 4141.41 192.97 4143.84 190.619 4145.19 187.947 4145.47 184.926 4145.64 183.171 4145.08 181.804 4143.83 180.806" stroke="#666666" stroke-width="0.458333" stroke-miterlimit="8" fill="#666666" fill-rule="evenodd"/><path d="M4163.5 179.681 4161.96 184.659C4161.61 184.279 4160.59 184.298 4160.17 184.298 4159.23 184.298 4157.91 185.124 4156.22 186.788 4154.61 188.368 4153.65 189.658 4153.37 190.625L4151.95 195.5 4146.5 195.5 4151.19 179.538 4156.59 179.538 4154.2 186.472 4154.54 186.472C4155.44 184.756 4156.54 183.273 4157.78 181.976 4159.4 180.319 4160.94 179.5 4162.36 179.5 4162.9 179.507 4163.15 179.461 4163.5 179.681" stroke="#666666" stroke-width="0.458333" stroke-miterlimit="8" fill="#666666" fill-rule="evenodd"/><path d="M4185.5 179.891 4184.55 183.115 4181.85 183.115C4181.41 184.48 4180.98 185.838 4180.55 187.182 4180.05 188.835 4179.73 190.206 4179.64 191.316 4179.53 192.366 4179.91 192.908 4180.76 192.908 4181.27 192.908 4181.87 192.687 4182.55 192.232L4181.54 195.771C4179.75 196.253 4178.33 196.5 4177.32 196.5 4176.14 196.5 4175.21 196.232 4174.52 195.698 4173.74 195.102 4173.41 194.206 4173.52 193.049 4173.64 191.737 4174.03 190.058 4174.67 188.018 4175.21 186.38 4177.93 177.336 4177.93 177.336L4183.78 176.5 4182.79 179.884 4185.5 179.884Z" stroke="#666666" stroke-width="0.458333" stroke-miterlimit="8" fill="#666666" fill-rule="evenodd"/><path d="M4212.15 187.344C4212.42 186.379 4212.88 185.495 4213.53 184.658 4214.33 183.646 4215.15 183.13 4216.02 183.13 4216.83 183.13 4217.2 183.526 4217.11 184.343 4216.93 186.352 4215.26 187.344 4212.15 187.344M4214.17 193.057C4212.21 193.057 4211.29 192.233 4211.43 190.592 4213.81 190.592 4216.12 189.942 4218.36 188.65 4220.89 187.163 4222.27 185.334 4222.48 183.144 4222.59 181.999 4222.23 181.108 4221.36 180.424 4220.57 179.801 4219.56 179.5 4218.38 179.5 4215.27 179.5 4212.43 180.652 4209.85 182.97 4207.29 185.281 4205.83 187.98 4205.53 191.055 4205.36 192.823 4205.95 194.189 4207.31 195.181 4208.48 196.051 4210.02 196.5 4211.9 196.5 4214.26 196.5 4217.2 195.897 4220.71 194.712L4221.93 190.679C4218.87 192.26 4216.28 193.057 4214.17 193.057" stroke="#666666" stroke-width="0.458333" stroke-miterlimit="8" fill="#666666" fill-rule="evenodd"/><path d="M4266.76 187.344C4266.99 186.379 4267.43 185.495 4268.04 184.658 4268.79 183.646 4269.57 183.13 4270.39 183.13 4271.15 183.13 4271.51 183.526 4271.42 184.343 4271.23 186.352 4269.67 187.344 4266.76 187.344M4268.65 193.057C4266.81 193.057 4265.94 192.233 4266.08 190.592 4268.33 190.592 4270.5 189.942 4272.6 188.65 4274.97 187.163 4276.27 185.334 4276.48 183.144 4276.58 181.999 4276.23 181.108 4275.42 180.424 4274.67 179.801 4273.74 179.5 4272.63 179.5 4269.7 179.5 4267.01 180.652 4264.6 182.97 4262.18 185.281 4260.82 187.98 4260.53 191.055 4260.36 192.823 4260.92 194.189 4262.19 195.181 4263.31 196.051 4264.74 196.5 4266.53 196.5 4268.75 196.5 4271.5 195.897 4274.8 194.712L4275.95 190.679C4273.06 192.26 4270.63 193.057 4268.65 193.057" stroke="#666666" stroke-width="0.458333" stroke-miterlimit="8" fill="#666666" fill-rule="evenodd"/><path d="M4290.5 179.584 4289.55 182.801 4286.84 182.801C4286.41 184.152 4285.96 185.831 4285.53 187.176 4285.02 188.828 4284.71 190.199 4284.61 191.31 4284.51 192.36 4284.89 192.902 4285.74 192.902 4286.24 192.902 4286.83 192.681 4287.52 192.226L4286.51 195.771C4284.73 196.253 4283.33 196.5 4282.3 196.5 4281.14 196.5 4280.21 196.233 4279.51 195.698 4278.75 195.102 4278.41 194.206 4278.52 193.049 4278.65 191.738 4279.03 190.059 4279.67 188.018 4280.19 186.38 4282.91 177.336 4282.91 177.336L4288.73 176.5 4287.8 179.59 4290.5 179.59Z" stroke="#666666" stroke-width="0.458333" stroke-miterlimit="8" fill="#666666" fill-rule="evenodd"/><path d="M4302.5 179.584 4301.55 182.801 4298.87 182.801C4298.43 184.152 4297.94 185.831 4297.51 187.176 4297 188.828 4296.69 190.199 4296.58 191.31 4296.49 192.36 4296.86 192.902 4297.7 192.902 4298.21 192.902 4298.8 192.681 4299.49 192.226L4298.49 195.771C4296.69 196.253 4295.31 196.5 4294.29 196.5 4293.1 196.5 4292.19 196.233 4291.51 195.698 4290.73 195.102 4290.4 194.206 4290.52 193.049 4290.64 191.738 4291.03 190.059 4291.67 188.018 4292.18 186.38 4294.9 177.336 4294.9 177.336L4300.7 176.5 4299.81 179.59 4302.5 179.59Z" stroke="#666666" stroke-width="0.458333" stroke-miterlimit="8" fill="#666666" fill-rule="evenodd"/><path d="M4308.74 187.344C4308.99 186.379 4309.43 185.495 4310.04 184.658 4310.78 183.646 4311.57 183.13 4312.39 183.13 4313.15 183.13 4313.49 183.526 4313.42 184.343 4313.23 186.352 4311.67 187.344 4308.74 187.344M4310.65 193.057C4308.8 193.057 4307.95 192.233 4308.08 190.592 4310.31 190.592 4312.49 189.942 4314.59 188.65 4316.98 187.163 4318.27 185.334 4318.48 183.144 4318.59 181.999 4318.23 181.108 4317.43 180.424 4316.68 179.801 4315.74 179.5 4314.62 179.5 4311.69 179.5 4309.01 180.652 4306.6 182.97 4304.18 185.281 4302.81 187.98 4302.53 191.055 4302.36 192.823 4302.92 194.189 4304.2 195.181 4305.31 196.051 4306.75 196.5 4308.53 196.5 4310.73 196.5 4313.5 195.897 4316.8 194.712L4317.95 190.679C4315.06 192.26 4312.63 193.057 4310.65 193.057" stroke="#666666" stroke-width="0.458333" stroke-miterlimit="8" fill="#666666" fill-rule="evenodd"/><path d="M3964.56 187.097C3963.94 193.618 3967.95 197.501 3975.25 197.501 3979.33 197.501 3983.24 196.802 3986.89 196.03 3987.03 195.546 3987.79 192.994 3988.12 191.906 3987.81 191.986 3987.48 192.081 3987.48 192.081 3984.66 192.88 3981.49 193.787 3978.81 193.787 3974.38 193.787 3971.68 190.737 3972.11 186.19 3972.74 179.427 3978.08 172.214 3985.01 172.214 3987.61 172.214 3990.36 172.832 3993.2 174.02 3993.42 173.275 3994.26 170.421 3994.5 169.588 3991.66 168.883 3988.81 168.5 3986 168.5 3973.15 168.507 3965.29 179.306 3964.56 187.097" stroke="#666666" stroke-width="0.458333" stroke-miterlimit="8" fill="#666666" fill-rule="evenodd"/><path d="M4244.74 184.301C4247.71 184.301 4251.27 185.035 4250.93 188.705 4250.63 192.063 4247.71 193.055 4244.84 193.055 4243.93 193.055 4243.1 193.028 4242.26 192.735L4244.74 184.301ZM4248.26 172.476C4248.8 172.299 4249.56 172.163 4250.17 172.163 4251.84 172.163 4254.02 172.38 4253.83 174.521 4253.46 178.484 4249.74 179.911 4248.28 179.911L4246.11 179.911 4248.26 172.476ZM4234.5 196.501 4247.78 196.501C4250.84 196.501 4257.11 194.564 4257.67 188.556 4258.01 184.913 4255.04 182.935 4251.99 182.086L4252 182.004C4255.81 181.046 4260.09 178.076 4260.47 173.882 4260.97 168.459 4254.96 168.5 4251.07 168.5L4242.48 168.5 4234.5 196.501Z" stroke="#666666" stroke-width="0.458333" stroke-miterlimit="8" fill="#666666" fill-rule="evenodd"/><path d="M4336.5 179.836 4334.67 184.662C4334.25 184.429 4333.43 184.294 4333.02 184.294 4332.07 184.294 4330.77 185.119 4329.11 186.784 4327.52 188.365 4326.58 189.655 4326.3 190.623L4324.89 195.5 4319.5 195.5 4324.1 179.558 4329.43 179.558 4327.11 186.474 4327.45 186.474C4328.34 184.758 4329.4 183.274 4330.65 181.978 4332.23 180.32 4333.75 179.5 4335.18 179.5 4335.7 179.494 4336.15 179.597 4336.5 179.836" stroke="#666666" stroke-width="0.458333" stroke-miterlimit="8" fill="#666666" fill-rule="evenodd"/><path d="M4045.81 195.5 4040.27 195.487C4040.27 195.487 4043.16 186.727 4043.4 184.879 4043.4 184.879 4043.52 184.292 4043.13 184.434 4042.74 184.563 4041.5 185.677 4040.01 187.313 4038.53 188.956 4037.71 190.057 4037.54 190.624L4036.09 195.494 4030.5 195.494 4035.28 179.513 4040.8 179.513 4038.39 186.476 4038.75 186.476C4039.68 184.769 4040.77 183.255 4042.05 181.98 4043.71 180.324 4045.28 179.5 4046.74 179.5 4047.67 179.5 4048.41 179.809 4048.93 180.44 4049.28 180.878 4049.8 181.735 4049.28 183.642L4045.81 195.5Z" stroke="#666666" stroke-width="0.458333" stroke-miterlimit="8" fill="#666666" fill-rule="evenodd"/><path d="M4001.27 195.487C4001.27 195.487 4004.05 186.242 4004.41 184.532 4004.41 184.532 4004.61 183.88 4004.14 184.074 4003.68 184.253 4002.51 185.357 4001.03 187.053 3999.53 188.743 3998.71 189.893 3998.54 190.459L3997.09 195.5 3991.5 195.5 3998.15 172.5 4003.7 172.5C4002.45 177.096 4001 181.646 3999.37 186.182L3999.73 186.182C4000.66 184.419 4001.75 182.863 4003.04 181.533 4004.71 179.823 4006.27 178.965 4007.74 178.965 4008.68 178.965 4009.42 179.291 4009.93 179.949 4010.28 180.395 4010.8 181.287 4010.29 183.255L4006.81 195.494 4001.27 195.494Z" stroke="#666666" stroke-width="0.458333" stroke-miterlimit="8" fill="#666666" fill-rule="evenodd"/><path d="M4195.27 195.494C4195.27 195.494 4198.05 186.235 4198.4 184.532 4198.4 184.532 4198.61 183.88 4198.14 184.074 4197.67 184.253 4196.51 185.364 4195.02 187.046 4193.53 188.743 4192.71 189.88 4192.54 190.465L4191.08 195.494 4185.5 195.494 4192.15 172.5 4197.7 172.5C4196.45 177.083 4195.01 181.646 4193.37 186.189L4193.73 186.189C4194.66 184.419 4195.75 182.863 4197.04 181.539 4198.71 179.837 4200.28 178.978 4201.74 178.978 4202.67 178.978 4203.4 179.304 4203.93 179.956 4204.28 180.409 4204.8 181.293 4204.29 183.255L4200.81 195.5 4195.27 195.5Z" stroke="#666666" stroke-width="0.458333" stroke-miterlimit="8" fill="#666666" fill-rule="evenodd"/><path d="M4005.84 154.5 3964.5 154.5 3985.17 118.5 4026.5 118.5Z" stroke="#FF0000" stroke-width="0.458333" stroke-miterlimit="8" fill="#FF0000" fill-rule="evenodd"/><path d="M4047.16 154.5 4088.5 154.5 4067.83 118.5 4026.5 118.5Z" stroke="#FF0000" stroke-width="0.458333" stroke-miterlimit="8" fill="#FF0000" fill-rule="evenodd"/><path d="M4047.5 82.5 4026.5 46.4999 4005.5 82.5 4026.5 118.5Z" stroke="#FF0000" stroke-width="0.458333" stroke-miterlimit="8" fill="#FF0000" fill-rule="evenodd"/><path d="M4107.48 139.092 4123.95 139.092 4123.95 133.035 4107.48 133.035 4107.48 125.564 4126.02 125.564 4126.02 119.5 4107.48 119.5 4100.5 119.5 4100.5 125.564 4100.5 148.416 4100.5 154.5 4107.48 154.5 4126.5 154.5 4126.5 148.416 4107.48 148.416Z" stroke="#000000" stroke-width="0.458333" stroke-miterlimit="8" fill-rule="evenodd"/><path d="M4107.13 87.4825 4114.58 113.5 4114.88 113.5 4121.12 113.5 4121.42 113.5 4128.87 87.4825 4128.87 113.5 4135.5 113.5 4135.5 78.4999 4131.88 78.4999 4128.77 78.4999 4125.35 78.4999 4118 103.069 4110.65 78.4999 4107.25 78.4999 4104.12 78.4999 4100.5 78.4999 4100.5 113.5 4107.13 113.5Z" stroke="#000000" stroke-width="0.458333" stroke-miterlimit="8" fill-rule="evenodd"/><path d="M4260.5 78.4999 4267.5 78.4999 4267.5 113.5 4260.5 113.5Z" stroke="#000000" stroke-width="0.458333" stroke-miterlimit="8" fill-rule="evenodd"/><path d="M4265.5 119.5 4272.5 119.5 4272.5 154.5 4265.5 154.5Z" stroke="#000000" stroke-width="0.458333" stroke-miterlimit="8" fill-rule="evenodd"/><path d="M4329.5 78.4999 4336.5 78.4999 4336.5 113.5 4329.5 113.5Z" stroke="#000000" stroke-width="0.458333" stroke-miterlimit="8" fill-rule="evenodd"/><path d="M4137.5 78.4999 4144.5 78.4999 4144.5 113.5 4137.5 113.5Z" stroke="#000000" stroke-width="0.458333" stroke-miterlimit="8" fill-rule="evenodd"/><path d="M4319.53 92.1523 4305.47 92.1523 4305.47 78.4999 4298.5 78.4999 4298.5 113.5 4305.47 113.5 4305.47 98.2236 4319.53 98.2236 4319.53 113.5 4326.5 113.5 4326.5 78.4999 4319.53 78.4999Z" stroke="#000000" stroke-width="0.458333" stroke-miterlimit="8" fill-rule="evenodd"/><path d="M4154.95 113.5 4162.05 113.5 4162.05 84.5646 4170.5 84.5646 4170.5 78.4999 4162.05 78.4999 4154.95 78.4999 4146.5 78.4999 4146.5 84.5646 4154.95 84.5646Z" stroke="#000000" stroke-width="0.458333" stroke-miterlimit="8" fill-rule="evenodd"/><path d="M4218.95 154.5 4226.05 154.5 4226.05 125.564 4234.5 125.564 4234.5 119.5 4226.05 119.5 4218.95 119.5 4210.5 119.5 4210.5 125.564 4218.95 125.564Z" stroke="#000000" stroke-width="0.458333" stroke-miterlimit="8" fill-rule="evenodd"/><path d="M4214.43 114.5C4223.48 114.5 4228.5 110.415 4228.5 102.594L4228.5 78.4999 4221.39 78.4999 4221.39 103.228C4221.39 106.242 4218.84 108.756 4214.42 108.756 4209.06 108.756 4207.49 105.79 4207.49 103.228L4207.49 78.4999 4200.5 78.4999 4200.5 102.594C4200.5 111.001 4205.77 114.5 4214.43 114.5" stroke="#000000" stroke-width="0.458333" stroke-miterlimit="8" fill-rule="evenodd"/><path d="M4161.48 139.092 4177.97 139.092 4177.97 133.035 4161.48 133.035 4161.48 125.564 4180.02 125.564 4180.02 119.5 4161.48 119.5 4154.5 119.5 4154.5 125.564 4154.5 148.416 4154.5 154.5 4161.48 154.5 4180.5 154.5 4180.5 148.416 4161.48 148.416Z" stroke="#000000" stroke-width="0.458333" stroke-miterlimit="8" fill-rule="evenodd"/><path d="M4237.8 113.5 4247.94 113.5C4254.56 113.5 4258.5 109.558 4258.5 104.052 4258.5 99.5982 4255.25 95.7775 4251.72 94.8949 4254.8 94.1198 4257.28 90.9661 4257.28 87.1185 4257.28 81.9566 4253.46 78.4999 4246.33 78.4999L4237.8 78.4999 4230.53 78.4999 4230.5 78.4999 4230.5 113.5 4230.53 113.5 4237.8 113.5ZM4245.84 108.217 4237.54 108.217 4237.54 98.0618 4245.75 98.0618C4248.7 98.0618 4251.21 99.76 4251.21 103.156 4251.21 106.027 4248.94 108.217 4245.84 108.217M4246.35 84.066C4248.29 84.066 4250.44 85.8583 4250.44 88.2101 4250.44 90.3057 4248.94 92.6103 4245.95 92.6103L4237.53 92.6103 4237.53 84.066 4246.35 84.066Z" stroke="#000000" stroke-width="0.458333" stroke-miterlimit="8" fill-rule="evenodd"/><path d="M4257.91 137.744C4260.94 136.835 4264.21 134.14 4264.21 129.289 4264.21 123.051 4259.94 119.5 4252.68 119.5L4243.68 119.5 4236.56 119.5 4236.5 119.5 4236.5 154.5 4243.68 154.5 4243.68 140.709 4249.77 140.709C4253.45 140.709 4255.47 142.589 4256.08 145.081 4256.73 147.844 4256.57 151.947 4257.28 154.5L4264.5 154.5C4263.8 151.819 4263.39 148.174 4263.23 145.304 4262.96 140.547 4260.43 138.667 4257.91 137.744M4243.68 135.083 4243.68 125.57 4252.31 125.57C4255.23 125.57 4257.17 127.578 4257.17 130.347 4257.17 132.281 4255.45 135.083 4252.53 135.083L4243.68 135.083Z" stroke="#000000" stroke-width="0.458333" stroke-miterlimit="8" fill-rule="evenodd"/><path d="M4135.71 119.5 4128.5 119.5 4128.5 148.416 4128.5 154.5 4135.71 154.5 4152.5 154.5 4152.5 148.416 4135.71 148.416Z" stroke="#000000" stroke-width="0.458333" stroke-miterlimit="8" fill-rule="evenodd"/><path d="M4182.38 98.799C4188.02 99.7906 4191.21 100.836 4191.21 104.235 4191.21 106.528 4188.97 108.707 4184.28 108.707 4179.62 108.707 4177.23 106.029 4177.23 102.839L4170.5 102.839C4170.5 108.936 4174.4 114.5 4184.59 114.5 4194.29 114.5 4198.5 109.32 4198.5 103.392 4198.5 97.8682 4194.91 94.3746 4188.51 93.0998 4182.36 91.8791 4178.12 91.6227 4178.12 87.6842 4178.12 84.9795 4180.57 83.3741 4184.34 83.3741 4188.35 83.3741 4190.64 85.3637 4190.64 88.7226L4197.44 88.7226C4197.44 83.1922 4193.29 77.4998 4184.07 77.4998 4177.7 77.4998 4171.1 81.2091 4171.1 88.136 4171.11 93.9497 4175.34 97.5511 4182.38 98.799" stroke="#000000" stroke-width="0.458333" stroke-miterlimit="8" fill-rule="evenodd"/><path d="M4280.82 98.799C4286.64 99.7906 4289.95 100.836 4289.95 104.235 4289.95 106.528 4287.62 108.707 4282.79 108.707 4277.95 108.707 4275.47 106.029 4275.47 102.839L4268.5 102.839C4268.5 108.936 4272.55 114.5 4283.1 114.5 4293.15 114.5 4297.5 109.32 4297.5 103.392 4297.5 97.8682 4293.79 94.3746 4287.15 93.0998 4280.79 91.8791 4276.41 91.6227 4276.41 87.6842 4276.41 84.9795 4278.94 83.3741 4282.85 83.3741 4286.99 83.3741 4289.37 85.3637 4289.37 88.7226L4296.4 88.7226C4296.4 83.1922 4292.1 77.4998 4282.56 77.4998 4275.97 77.4998 4269.14 81.2091 4269.14 88.136 4269.14 93.9497 4273.53 97.5511 4280.82 98.799" stroke="#000000" stroke-width="0.458333" stroke-miterlimit="8" fill-rule="evenodd"/><path d="M4196.71 149.269C4191.05 149.269 4187.75 143.63 4187.75 136.901 4187.75 130.173 4190.94 124.52 4196.71 124.52 4201 124.52 4203.22 127.244 4204.18 130.581L4211.45 130.581C4210.26 123.649 4204.94 118.5 4196.52 118.5 4185.89 118.5 4180.5 126.788 4180.5 137.003 4180.5 147.219 4186.1 155.5 4196.52 155.5 4204.84 155.5 4210.47 150.556 4211.5 143.01L4204.18 143.01C4203.22 146.565 4200.93 149.269 4196.71 149.269" stroke="#000000" stroke-width="0.458333" stroke-miterlimit="8" fill-rule="evenodd"/><path d="M4290.7 149.269C4285.05 149.269 4281.75 143.63 4281.75 136.901 4281.75 130.173 4284.93 124.52 4290.7 124.52 4295.01 124.52 4297.21 127.244 4298.16 130.581L4305.45 130.581C4304.26 123.649 4298.93 118.5 4290.5 118.5 4279.88 118.5 4274.5 126.788 4274.5 137.003 4274.5 147.219 4280.09 155.5 4290.5 155.5 4298.84 155.5 4304.46 150.556 4305.5 143.01L4298.16 143.01C4297.21 146.565 4294.92 149.269 4290.7 149.269" stroke="#000000" stroke-width="0.458333" stroke-miterlimit="8" fill-rule="evenodd"/><rect x="3609.5" y="45.4999" width="286" height="68.0001" stroke="#FF0000" stroke-width="6.875" stroke-miterlimit="8" fill="none"/><text fill="#FF0000" font-family="Yu Gothic,Yu Gothic_MSFontService,sans-serif" font-weight="700" font-size="50" transform="matrix(1 0 0 1 3676.44 102)">社外秘</text></g></svg>