<svg width="2642" height="1103" xmlns="http://www.w3.org/2000/svg" xmlns:xlink="http://www.w3.org/1999/xlink" xml:space="preserve" overflow="hidden"><defs><clipPath id="clip0"><rect x="880" y="593" width="2642" height="1103"/></clipPath></defs><g clip-path="url(#clip0)" transform="translate(-880 -593)"><path d="M1304.66 1572.33C1303.38 1576 1297.06 1584.53 1285.58 1597.86 1273.24 1612.14 1264.99 1619.29 1260.81 1619.29 1257.82 1619.29 1256.54 1617.05 1257.01 1612.62 1258.01 1601.62 1262 1590.14 1268.88 1578.14 1277.13 1563.95 1286.05 1556.9 1295.64 1556.9 1299.67 1556.9 1303.8 1558.14 1307.98 1560.67L1304.66 1572.33ZM1328.58 1533.19C1316.19 1532.91 1305.42 1533.62 1299.29 1533.62 1280.41 1533.62 1262.04 1544 1244.29 1564.62 1227.4 1584.14 1218.1 1603.71 1216.2 1623.52 1215.39 1631.52 1217.01 1638.48 1221 1644.48 1225.31 1650.76 1231.2 1654 1238.79 1654 1249.28 1654 1260.43 1647.86 1272.29 1635.71 1281.55 1626.1 1289.47 1615.05 1295.92 1602.57L1298.49 1602.57 1282.02 1651.33 1321.6 1651.33 1356 1533C1349.6 1533 1341.53 1533.48 1328.58 1533.19" fill="#666666" fill-rule="evenodd"/><path d="M1580.94 1572.1C1579.57 1576.85 1573.16 1585.42 1561.77 1597.74 1550.1 1610.4 1542.32 1616.78 1538.43 1616.78 1536.1 1616.78 1535.06 1614.49 1535.58 1609.97 1536.58 1599.51 1540.37 1588.51 1547.06 1577.05 1554.85 1563.58 1563.29 1556.82 1572.36 1556.82 1576.67 1556.82 1580.66 1557.82 1584.41 1559.92L1580.94 1572.1ZM1604.43 1533.03C1592.57 1532.84 1577.72 1533.56 1577.72 1533.56 1558.64 1533.56 1540.33 1543.22 1522.82 1562.48 1506.02 1580.9 1496.72 1600.22 1494.73 1620.2 1493.97 1628.67 1495.54 1635.62 1499.57 1641.19 1503.89 1647.23 1510.05 1650.27 1518.12 1650.27 1537.53 1650.27 1555.56 1634.38 1572.54 1602.6L1577.29 1602.6C1574.54 1611.64 1571.79 1620.68 1568.94 1629.72 1564.86 1642.52 1560.49 1652.13 1555.84 1658.6 1549.44 1667.5 1541.8 1671.97 1532.88 1671.97 1519.5 1671.97 1503.51 1667.26 1485 1657.7L1488.04 1691.77C1497.86 1693.95 1510.15 1695 1524.72 1695 1566.24 1695 1591.72 1677.82 1601.16 1643.56L1632 1533.03C1625.97 1533.03 1616.63 1533.22 1604.43 1533.03" fill="#666666" fill-rule="evenodd"/><path d="M1677.28 1588.83C1679.09 1581.96 1682.23 1575.67 1686.75 1569.71 1692.13 1562.51 1697.79 1558.84 1703.74 1558.84 1709.22 1558.84 1711.74 1561.65 1711.17 1567.47 1709.84 1581.77 1698.56 1588.83 1677.28 1588.83M1691.13 1629.49C1677.76 1629.49 1671.52 1623.63 1672.47 1611.95 1688.7 1611.95 1704.46 1607.33 1719.74 1598.12 1737.02 1587.54 1746.34 1574.52 1747.87 1558.94 1748.63 1550.78 1746.11 1544.44 1740.21 1539.58 1734.73 1535.15 1728.02 1533 1719.93 1533 1698.7 1533 1679.28 1541.2 1661.72 1557.7 1644.2 1574.14 1634.35 1593.36 1632.21 1615.24 1631.02 1627.83 1635.01 1637.55 1644.3 1644.61 1652.39 1650.81 1662.76 1654 1675.71 1654 1691.75 1654 1711.79 1649.71 1735.73 1641.27L1744.11 1612.57C1723.12 1623.82 1705.46 1629.49 1691.13 1629.49" fill="#666666" fill-rule="evenodd"/><path d="M1868 1536.5 1860.9 1561.26C1851.67 1557.85 1843.48 1556.01 1836.29 1556.01 1825.86 1556.01 1820.24 1559.6 1819.57 1566.56 1819.29 1569.83 1821.81 1574.04 1827.24 1579.34 1836 1587.63 1841.09 1592.6 1842.48 1594.25 1847.81 1601.02 1850.1 1607.89 1849.33 1614.9 1848.1 1628.34 1841.33 1638.23 1829.29 1644.91 1819.48 1650.3 1807.48 1653 1793.33 1653 1782.38 1653 1768.9 1650.92 1753 1646.75L1760.81 1619.82C1775.48 1626.63 1787.05 1630 1795.48 1630 1798.71 1630 1801.76 1628.95 1804.48 1626.92 1807.19 1624.93 1808.72 1622.37 1809 1619.11 1809.38 1614.9 1807.14 1609.97 1802.19 1604.29 1797.52 1599.27 1792.81 1594.11 1788.19 1589 1783.24 1582.37 1781.09 1575.51 1781.76 1568.6 1783 1555.91 1789.76 1546.49 1802.14 1540.34 1811.81 1535.41 1823.33 1533 1837 1533 1839.05 1533 1849.33 1534.09 1868 1536.5" fill="#666666" fill-rule="evenodd"/><path d="M2070 1489.92 2063.04 1514.28C2053.85 1509.98 2045.37 1507.75 2037.6 1507.75 2030.02 1507.75 2024.45 1510.73 2020.78 1516.6 2019.06 1519.44 2016.92 1525.82 2014.1 1536.04L2043.55 1536.04 2036.69 1558.89 2007.72 1558.89 1973.22 1677 1933 1677 1974.31 1536.04C1979.84 1520.34 1988.42 1507.94 1999.95 1498.91 2011.96 1489.64 2025.83 1485 2041.55 1485 2051.75 1485.05 2061.23 1486.7 2070 1489.92" fill="#666666" fill-rule="evenodd"/><path d="M2116.91 1611.09C2109.67 1623.35 2101.04 1629.49 2091 1629.49 2085.84 1629.49 2082.05 1627.16 2079.73 1622.53 2077.79 1618.72 2077.12 1613.91 2077.69 1608.19 2078.73 1596.55 2082.19 1585.82 2088.02 1575.76 2095.17 1563.61 2103.79 1557.51 2113.98 1557.51 2119.28 1557.51 2123.12 1559.7 2125.39 1564.32 2127.29 1568.09 2127.9 1572.9 2127.33 1578.91 2126.24 1590.21 2122.79 1600.99 2116.91 1611.09M2155.85 1542.3C2147.75 1536.05 2137.28 1533 2124.44 1533 2103.36 1533 2084.04 1541.2 2066.51 1557.7 2049.03 1574.14 2039.28 1593.36 2037.19 1615.24 2036.05 1627.83 2039.99 1637.55 2049.18 1644.61 2057.28 1650.81 2067.74 1654 2080.49 1654 2101.33 1654 2120.65 1645.56 2138.23 1628.88 2155.9 1612.14 2165.75 1593.12 2167.79 1571.62 2169.02 1559.13 2164.94 1549.4 2155.85 1542.3" fill="#666666" fill-rule="evenodd"/><path d="M2295 1534.33 2283.78 1571.05C2281.22 1568.24 2273.79 1568.39 2270.71 1568.39 2263.85 1568.39 2254.24 1574.47 2241.88 1586.75 2230.14 1598.4 2223.18 1607.91 2221.14 1615.05L2210.72 1651 2171 1651 2205.23 1533.28 2244.58 1533.28 2227.15 1584.41 2229.62 1584.41C2236.24 1571.76 2244.2 1560.82 2253.29 1551.26 2265.13 1539.04 2276.3 1533 2286.72 1533 2290.6 1533.05 2292.45 1532.72 2295 1534.33" fill="#666666" fill-rule="evenodd"/><path d="M2451 1536.08 2444.28 1558.97 2425.15 1558.97C2422.02 1568.66 2418.99 1578.3 2415.92 1587.84 2412.36 1599.57 2410.14 1609.31 2409.48 1617.19 2408.72 1624.65 2411.37 1628.5 2417.43 1628.5 2421.03 1628.5 2425.29 1626.93 2430.12 1623.7L2422.92 1648.82C2410.28 1652.24 2400.24 1654 2393.09 1654 2384.71 1654 2378.13 1652.1 2373.26 1648.3 2367.72 1644.07 2365.35 1637.71 2366.15 1629.49 2367 1620.19 2369.75 1608.27 2374.3 1593.78 2378.09 1582.15 2397.36 1517.94 2397.36 1517.94L2438.78 1512 2431.78 1536.03 2451 1536.03Z" fill="#666666" fill-rule="evenodd"/><path d="M2637.38 1588.83C2639.2 1581.96 2642.34 1575.67 2646.77 1569.71 2652.24 1562.51 2657.82 1558.84 2663.77 1558.84 2669.34 1558.84 2671.82 1561.65 2671.2 1567.47 2669.96 1581.77 2658.58 1588.83 2637.38 1588.83M2651.15 1629.49C2637.77 1629.49 2631.53 1623.63 2632.43 1611.95 2648.72 1611.95 2664.48 1607.33 2679.77 1598.12 2697.01 1587.54 2706.44 1574.52 2707.87 1558.94 2708.63 1550.78 2706.15 1544.44 2700.25 1539.58 2694.82 1535.15 2687.96 1533 2679.91 1533 2658.67 1533 2639.29 1541.2 2621.67 1557.7 2604.19 1574.14 2594.28 1593.36 2592.19 1615.24 2591.05 1627.83 2595.05 1637.55 2604.34 1644.61 2612.33 1650.81 2622.86 1654 2635.67 1654 2651.77 1654 2671.82 1649.71 2695.82 1641.27L2704.1 1612.57C2683.2 1623.82 2665.58 1629.49 2651.15 1629.49" fill="#666666" fill-rule="evenodd"/><path d="M3022.98 1588.83C3024.68 1581.96 3027.79 1575.67 3032.22 1569.71 3037.6 1562.51 3043.17 1558.84 3049.06 1558.84 3054.53 1558.84 3057.13 1561.65 3056.52 1567.47 3055.1 1581.77 3043.88 1588.83 3022.98 1588.83M3036.56 1629.49C3023.36 1629.49 3017.13 1623.63 3018.12 1611.95 3034.25 1611.95 3049.87 1607.33 3064.96 1598.12 3082.04 1587.54 3091.37 1574.52 3092.89 1558.94 3093.59 1550.78 3091.04 1544.44 3085.24 1539.58 3079.86 1535.15 3073.17 1533 3065.2 1533 3044.11 1533 3024.82 1541.2 3007.46 1557.7 2990.05 1574.14 2980.29 1593.36 2978.21 1615.24 2976.99 1627.83 2981.04 1637.55 2990.15 1644.61 2998.17 1650.81 3008.5 1654 3021.33 1654 3037.27 1654 3057.04 1649.71 3080.81 1641.27L3089.07 1612.57C3068.31 1623.82 3050.81 1629.49 3036.56 1629.49" fill="#666666" fill-rule="evenodd"/><path d="M3193 1533.89 3186.26 1556.74 3167.1 1556.74C3164.04 1566.33 3160.88 1578.25 3157.76 1587.8 3154.18 1599.53 3152.01 1609.26 3151.25 1617.15 3150.54 1624.6 3153.23 1628.45 3159.32 1628.45 3162.86 1628.45 3167.01 1626.89 3171.92 1623.66L3164.74 1648.83C3152.15 1652.25 3142.2 1654 3134.93 1654 3126.68 1654 3120.12 1652.1 3115.17 1648.3 3109.74 1644.08 3107.38 1637.71 3108.14 1629.5 3109.08 1620.19 3111.77 1608.27 3116.3 1593.78 3119.98 1582.15 3139.22 1517.94 3139.22 1517.94L3180.5 1512 3173.85 1533.94 3193 1533.94Z" fill="#666666" fill-rule="evenodd"/><path d="M3278 1533.89 3271.2 1556.74 3251.99 1556.74C3248.81 1566.33 3245.33 1578.25 3242.24 1587.8 3238.58 1599.53 3236.35 1609.26 3235.59 1617.15 3234.92 1624.6 3237.58 1628.45 3243.62 1628.45 3247.24 1628.45 3251.47 1626.89 3256.41 1623.66L3249.23 1648.83C3236.39 1652.25 3226.46 1654 3219.13 1654 3210.67 1654 3204.11 1652.1 3199.21 1648.3 3193.65 1644.08 3191.32 1637.71 3192.17 1629.5 3193.03 1620.19 3195.83 1608.27 3200.4 1593.78 3204.01 1582.15 3223.51 1517.94 3223.51 1517.94L3265.12 1512 3258.7 1533.94 3278 1533.94Z" fill="#666666" fill-rule="evenodd"/><path d="M3319.87 1588.83C3321.67 1581.96 3324.78 1575.67 3329.21 1569.71 3334.5 1562.51 3340.2 1558.84 3346.05 1558.84 3351.57 1558.84 3354.02 1561.65 3353.46 1567.47 3352.14 1581.77 3340.91 1588.83 3319.87 1588.83M3333.55 1629.49C3320.25 1629.49 3314.17 1623.63 3315.11 1611.95 3331.15 1611.95 3346.81 1607.33 3361.9 1598.12 3379.07 1587.54 3388.36 1574.52 3389.87 1558.94 3390.63 1550.78 3388.03 1544.44 3382.28 1539.58 3376.9 1535.15 3370.16 1533 3362.09 1533 3341.05 1533 3321.81 1541.2 3304.45 1557.7 3287.04 1574.14 3277.23 1593.36 3275.2 1615.24 3274.02 1627.83 3277.98 1637.55 3287.19 1644.61 3295.2 1650.81 3305.53 1654 3318.36 1654 3334.17 1654 3354.07 1649.71 3377.8 1641.27L3386.05 1612.57C3365.3 1623.82 3347.8 1629.49 3333.55 1629.49" fill="#666666" fill-rule="evenodd"/><path d="M882.451 1587.82C877.977 1633.69 906.925 1661 959.729 1661 989.251 1661 1017.58 1656.09 1043.96 1650.66 1044.96 1647.25 1050.48 1629.3 1052.86 1621.65 1050.58 1622.21 1048.2 1622.88 1048.2 1622.88 1027.82 1628.5 1004.87 1634.88 985.49 1634.88 953.445 1634.88 933.971 1613.43 937.065 1581.44 941.637 1533.87 980.252 1483.13 1030.39 1483.13 1049.15 1483.13 1069.05 1487.47 1089.62 1495.83 1091.19 1490.59 1097.24 1470.51 1099 1464.65 1078.48 1459.69 1057.81 1457 1037.48 1457 944.588 1457.05 887.738 1533.02 882.451 1587.82" fill="#666666" fill-rule="evenodd"/><path d="M2868.03 1567.61C2889.49 1567.61 2915.23 1572.75 2912.8 1598.44 2910.66 1621.94 2889.49 1628.88 2868.74 1628.88 2862.18 1628.88 2856.18 1628.69 2850.14 1626.65L2868.03 1567.61ZM2893.49 1484.83C2897.43 1483.59 2902.91 1482.64 2907.33 1482.64 2919.41 1482.64 2935.16 1484.16 2933.74 1499.15 2931.07 1526.89 2904.19 1536.88 2893.68 1536.88L2877.93 1536.88 2893.49 1484.83ZM2794 1653 2890.01 1653C2912.13 1653 2957.52 1639.45 2961.57 1597.39 2963.99 1571.89 2942.54 1558.04 2920.46 1552.1L2920.51 1551.53C2948.06 1544.82 2979.03 1524.03 2981.79 1494.68 2985.41 1456.72 2941.97 1457 2913.8 1457L2851.71 1457 2794 1653Z" fill="#666666" fill-rule="evenodd"/><path d="M3521 1535.48 3507.44 1571.07C3504.31 1569.35 3498.22 1568.35 3495.17 1568.35 3488.18 1568.35 3478.53 1574.44 3466.21 1586.72 3454.41 1598.38 3447.51 1607.89 3445.37 1615.03L3434.96 1651 3395 1651 3429.11 1533.43 3468.63 1533.43 3451.41 1584.44 3453.93 1584.44C3460.5 1571.78 3468.39 1560.84 3477.62 1551.27 3489.37 1539.04 3500.64 1533 3511.2 1533 3515.1 1532.95 3518.43 1533.71 3521 1535.48" fill="#666666" fill-rule="evenodd"/><path d="M1459.77 1651 1420.4 1650.91C1420.4 1650.91 1440.98 1586.3 1442.63 1572.67 1442.63 1572.67 1443.53 1568.34 1440.74 1569.39 1438 1570.34 1429.18 1578.56 1418.6 1590.62 1408.07 1602.74 1402.22 1610.86 1400.99 1615.04L1390.7 1650.95 1351 1650.95 1384.99 1533.09 1424.17 1533.09 1407.03 1584.45 1409.58 1584.45C1416.19 1571.86 1423.94 1560.69 1433.05 1551.29 1444.9 1539.08 1455.99 1533 1466.42 1533 1473.03 1533 1478.27 1535.28 1481.95 1539.94 1484.41 1543.17 1488.14 1549.48 1484.45 1563.54L1459.77 1651Z" fill="#666666" fill-rule="evenodd"/><path d="M1142.92 1650.91C1142.92 1650.91 1162.86 1584.98 1165.43 1572.8 1165.43 1572.8 1166.81 1568.15 1163.48 1569.52 1160.2 1570.8 1151.82 1578.68 1141.21 1590.77 1130.5 1602.82 1124.6 1611.02 1123.41 1615.05L1112.98 1651 1073 1651 1120.6 1487 1160.29 1487C1151.34 1519.77 1140.97 1552.21 1129.31 1584.56L1131.88 1584.56C1138.54 1571.99 1146.35 1560.89 1155.58 1551.41 1167.57 1539.22 1178.71 1533.1 1189.23 1533.1 1195.94 1533.1 1201.27 1535.42 1204.94 1540.12 1207.41 1543.29 1211.13 1549.65 1207.46 1563.69L1182.62 1650.95 1142.92 1650.95Z" fill="#666666" fill-rule="evenodd"/><path d="M2518.43 1650.95C2518.43 1650.95 2538.17 1584.94 2540.67 1572.8 2540.67 1572.8 2542.14 1568.15 2538.78 1569.52 2535.48 1570.8 2527.26 1578.72 2516.63 1590.72 2506.05 1602.82 2500.24 1610.93 2499.02 1615.1L2488.63 1650.95 2449 1650.95 2496.23 1487 2535.67 1487C2526.83 1519.68 2516.54 1552.21 2504.92 1584.6L2507.47 1584.6C2514.08 1571.99 2521.83 1560.89 2530.99 1551.45 2542.85 1539.31 2553.99 1533.19 2564.38 1533.19 2571 1533.19 2576.19 1535.52 2579.97 1540.17 2582.43 1543.39 2586.11 1549.7 2582.47 1563.69L2557.82 1651 2518.43 1651Z" fill="#666666" fill-rule="evenodd"/><path d="M1174.73 1357 880 1357 1027.36 1103 1322 1103Z" fill="#FF0000" fill-rule="evenodd"/><path d="M1468.99 1357 1763 1357 1615.97 1103 1322 1103Z" fill="#FF0000" fill-rule="evenodd"/><path d="M1469 848 1321.98 593 1175 848 1321.98 1103Z" fill="#FF0000" fill-rule="evenodd"/><path d="M1894.96 1248.7 2012.78 1248.7 2012.78 1206.13 1894.96 1206.13 1894.96 1153.62 2027.54 1153.62 2027.54 1111 1894.96 1111 1845 1111 1845 1153.62 1845 1314.24 1845 1357 1894.96 1357 2031 1357 2031 1314.24 1894.96 1314.24Z" fill-rule="evenodd"/><path d="M1891.61 886.391 1943.96 1070 1946.1 1070 1989.95 1070 1992.04 1070 2044.39 886.391 2044.39 1070 2091 1070 2091 823 2065.58 823 2043.68 823 2019.69 823 1968 996.386 1916.36 823 1892.41 823 1870.46 823 1845 823 1845 1070 1891.61 1070Z" fill-rule="evenodd"/><path d="M2977 823 3027 823 3027 1070 2977 1070Z" fill-rule="evenodd"/><path d="M3017 1111 3067 1111 3067 1357 3017 1357Z" fill-rule="evenodd"/><path d="M3468 823 3518 823 3518 1070 3468 1070Z" fill-rule="evenodd"/><path d="M2111 823 2160 823 2160 1070 2111 1070Z" fill-rule="evenodd"/><path d="M3398.99 919.347 3300.01 919.347 3300.01 823 3251 823 3251 1070 3300.01 1070 3300.01 962.193 3398.99 962.193 3398.99 1070 3448 1070 3448 823 3398.99 823Z" fill-rule="evenodd"/><path d="M2234.19 1070 2284.81 1070 2284.81 865.8 2345 865.8 2345 823 2284.81 823 2234.19 823 2174 823 2174 865.8 2234.19 865.8Z" fill-rule="evenodd"/><path d="M2687.19 1357 2737.81 1357 2737.81 1153.62 2798 1153.62 2798 1111 2737.81 1111 2687.19 1111 2627 1111 2627 1153.62 2687.19 1153.62Z" fill-rule="evenodd"/><path d="M2652.98 1077C2716.02 1077 2751 1048.18 2751 993L2751 823 2701.49 823 2701.49 997.47C2701.49 1018.73 2683.7 1036.48 2652.93 1036.48 2615.64 1036.48 2604.7 1015.55 2604.7 997.47L2604.7 823 2556 823 2556 993C2556 1052.31 2592.68 1077 2652.98 1077" fill-rule="evenodd"/><path d="M2277.93 1248.7 2395.87 1248.7 2395.87 1206.13 2277.93 1206.13 2277.93 1153.62 2410.58 1153.62 2410.58 1111 2277.93 1111 2228 1111 2228 1153.62 2228 1314.24 2228 1357 2277.93 1357 2414 1357 2414 1314.24 2277.93 1314.24Z" fill-rule="evenodd"/><path d="M2820.08 1070 2891.1 1070C2937.4 1070 2965 1042.18 2965 1003.33 2965 971.893 2942.23 944.93 2917.52 938.702 2939.1 933.232 2956.48 910.976 2956.48 883.823 2956.48 847.395 2929.73 823 2879.83 823L2820.08 823 2769.24 823 2769 823 2769 1070 2769.24 1070 2820.08 1070ZM2876.38 1032.72 2818.28 1032.72 2818.28 961.051 2875.76 961.051C2896.4 961.051 2913.96 973.036 2913.96 997.003 2913.96 1017.26 2898.06 1032.72 2876.38 1032.72M2879.97 862.281C2893.56 862.281 2908.62 874.929 2908.62 891.526 2908.62 906.315 2898.06 922.579 2877.18 922.579L2818.24 922.579 2818.24 862.281 2879.97 862.281Z" fill-rule="evenodd"/><path d="M2959.11 1239.23C2980.23 1232.84 3003 1213.9 3003 1179.8 3003 1135.95 2973.24 1111 2922.69 1111L2860.02 1111 2810.43 1111 2810 1111 2810 1357 2860.02 1357 2860.02 1260.07 2902.44 1260.07C2928.07 1260.07 2942.09 1273.28 2946.32 1290.8 2950.89 1310.22 2949.75 1339.06 2954.69 1357L3005 1357C3000.15 1338.16 2997.3 1312.54 2996.16 1292.36 2994.3 1258.93 2976.66 1245.72 2959.11 1239.23M2859.97 1220.53 2859.97 1153.66 2920.12 1153.66C2940.43 1153.66 2953.98 1167.78 2953.98 1187.24 2953.98 1200.83 2942 1220.53 2921.65 1220.53L2859.97 1220.53Z" fill-rule="evenodd"/><path d="M2096.88 1111 2047 1111 2047 1314.24 2047 1357 2096.88 1357 2213 1357 2213 1314.24 2096.88 1314.24Z" fill-rule="evenodd"/><path d="M2428.46 965.67C2468.5 972.637 2491.19 979.982 2491.19 1003.87 2491.19 1019.98 2475.24 1035.29 2441.93 1035.29 2408.82 1035.29 2391.83 1016.48 2391.83 994.057L2344 994.057C2344 1036.9 2371.71 1076 2444.16 1076 2513.11 1076 2543 1039.6 2543 997.944 2543 959.128 2517.47 934.579 2471.97 925.621 2428.27 917.043 2398.19 915.241 2398.19 887.565 2398.19 868.559 2415.6 857.279 2442.36 857.279 2470.83 857.279 2487.15 871.26 2487.15 894.862L2535.46 894.862C2535.46 856 2505.99 816 2440.46 816 2395.2 816 2348.27 842.065 2348.27 890.74 2348.32 931.593 2378.4 956.9 2428.46 965.67" fill-rule="evenodd"/><path d="M3123.51 965.67C3163.49 972.637 3186.16 979.982 3186.16 1003.87 3186.16 1019.98 3170.23 1035.29 3137.03 1035.29 3103.83 1035.29 3086.8 1016.48 3086.8 994.057L3039 994.057C3039 1036.9 3066.79 1076 3139.17 1076 3208.12 1076 3238 1039.6 3238 997.944 3238 959.128 3212.53 934.579 3167 925.621 3123.32 917.043 3093.3 915.241 3093.3 887.565 3093.3 868.559 3110.66 857.279 3137.46 857.279 3165.87 857.279 3182.23 871.26 3182.23 894.862L3230.46 894.862C3230.46 856 3200.96 816 3135.46 816 3090.27 816 3043.41 842.065 3043.41 890.74 3043.36 931.593 3073.53 956.9 3123.51 965.67" fill-rule="evenodd"/><path d="M2526.03 1319.55C2485.87 1319.55 2462.42 1280.23 2462.42 1233.31 2462.42 1186.39 2485.11 1146.98 2526.03 1146.98 2556.51 1146.98 2572.23 1165.97 2579.02 1189.24L2630.67 1189.24C2622.22 1140.9 2584.48 1105 2524.66 1105 2449.22 1105 2411 1162.79 2411 1234.02 2411 1305.25 2450.74 1363 2524.66 1363 2583.76 1363 2623.69 1328.52 2631 1275.91L2579.02 1275.91C2572.23 1300.7 2555.99 1319.55 2526.03 1319.55" fill-rule="evenodd"/><path d="M3193.99 1319.55C3153.87 1319.55 3130.42 1280.23 3130.42 1233.31 3130.42 1186.39 3153.01 1146.98 3193.99 1146.98 3224.56 1146.98 3240.18 1165.97 3246.92 1189.24L3298.67 1189.24C3290.22 1140.9 3252.38 1105 3192.56 1105 3117.17 1105 3079 1162.79 3079 1234.02 3079 1305.25 3118.69 1363 3192.56 1363 3251.76 1363 3291.64 1328.52 3299 1275.91L3246.92 1275.91C3240.18 1300.7 3223.94 1319.55 3193.99 1319.55" fill-rule="evenodd"/></g></svg>