<svg width="4404" height="2476" xmlns="http://www.w3.org/2000/svg" xmlns:xlink="http://www.w3.org/1999/xlink" xml:space="preserve" overflow="hidden"><g><rect x="4189.5" y="2378.5" width="4" height="97" stroke="#000000" stroke-width="0.458333" stroke-miterlimit="8"/><text font-family="Segoe UI,Segoe UI_MSFontService,sans-serif" font-weight="400" font-size="28" transform="matrix(1 0 0 1 65.3125 2430)">©Mitsubishi</text><text font-family="Segoe UI,Segoe UI_MSFontService,sans-serif" font-weight="400" font-size="28" transform="matrix(1 0 0 1 221.719 2430)">Electric</text><text font-family="Segoe UI,Segoe UI_MSFontService,sans-serif" font-weight="400" font-size="28" transform="matrix(1 0 0 1 315.104 2430)">Corporation</text><path d="M0.499836 249.5 4400.5 249.5" stroke="#E1E1E1" stroke-width="6.875" stroke-miterlimit="8" fill="none" fill-rule="evenodd"/><rect x="0" y="0" width="425" height="249" fill="#E1E1E1"/><path d="M4023.67 184.526C4023.48 185.042 4022.58 186.239 4020.94 188.112 4019.18 190.119 4018 191.123 4017.4 191.123 4016.97 191.123 4016.79 190.808 4016.86 190.186 4017 188.641 4017.57 187.028 4018.55 185.342 4019.73 183.349 4021.01 182.359 4022.38 182.359 4022.95 182.359 4023.54 182.533 4024.14 182.887L4023.67 184.526ZM4027.08 179.027C4025.31 178.987 4023.77 179.087 4022.9 179.087 4020.2 179.087 4017.58 180.546 4015.04 183.442 4012.63 186.185 4011.3 188.935 4011.03 191.718 4010.91 192.842 4011.14 193.819 4011.71 194.662 4012.33 195.545 4013.17 196 4014.26 196 4015.75 196 4017.35 195.137 4019.04 193.431 4020.36 192.079 4021.5 190.527 4022.42 188.775L4022.78 188.775 4020.43 195.625 4026.09 195.625 4031 179C4030.09 179 4028.93 179.067 4027.08 179.027" fill="#666666" fill-rule="evenodd"/><path d="M4062.71 184.551C4062.51 185.226 4061.59 186.442 4059.97 188.192 4058.3 189.989 4057.19 190.894 4056.63 190.894 4056.3 190.894 4056.15 190.57 4056.23 189.928 4056.37 188.442 4056.91 186.882 4057.87 185.254 4058.98 183.342 4060.18 182.383 4061.48 182.383 4062.1 182.383 4062.67 182.524 4063.2 182.822L4062.71 184.551ZM4066.06 179.005C4064.37 178.978 4062.25 179.079 4062.25 179.079 4059.52 179.079 4056.9 180.451 4054.4 183.186 4052 185.801 4050.67 188.543 4050.39 191.381 4050.28 192.583 4050.51 193.569 4051.08 194.36 4051.7 195.218 4052.58 195.65 4053.73 195.65 4056.5 195.65 4059.08 193.394 4061.51 188.881L4062.18 188.881C4061.79 190.165 4061.4 191.448 4060.99 192.732 4060.41 194.549 4059.78 195.914 4059.12 196.833 4058.21 198.096 4057.11 198.731 4055.84 198.731 4053.93 198.731 4051.64 198.062 4049 196.704L4049.43 201.541C4050.84 201.852 4052.59 202 4054.67 202 4060.61 202 4064.25 199.562 4065.59 194.697L4070 179.005C4069.14 179.005 4067.8 179.032 4066.06 179.005" fill="#666666" fill-rule="evenodd"/><path d="M4076.25 186.844C4076.5 185.879 4076.93 184.995 4077.55 184.158 4078.29 183.146 4079.08 182.631 4079.9 182.631 4080.65 182.631 4081 183.026 4080.92 183.843 4080.74 185.852 4079.18 186.844 4076.25 186.844M4078.16 192.557C4076.31 192.557 4075.45 191.733 4075.58 190.092 4077.82 190.092 4079.99 189.442 4082.1 188.15 4084.49 186.663 4085.77 184.834 4085.98 182.644 4086.09 181.499 4085.74 180.608 4084.93 179.925 4084.17 179.302 4083.24 179 4082.13 179 4079.2 179 4076.52 180.152 4074.1 182.47 4071.68 184.781 4070.32 187.48 4070.03 190.554 4069.86 192.323 4070.42 193.689 4071.7 194.68 4072.81 195.551 4074.24 196 4076.03 196 4078.24 196 4081.01 195.397 4084.31 194.212L4085.46 190.179C4082.57 191.76 4080.13 192.557 4078.16 192.557" fill="#666666" fill-rule="evenodd"/><path d="M4103 179.496 4102.01 183.004C4100.73 182.521 4099.59 182.259 4098.59 182.259 4097.14 182.259 4096.35 182.769 4096.26 183.755 4096.22 184.217 4096.57 184.814 4097.33 185.565 4098.55 186.739 4099.26 187.443 4099.45 187.678 4100.19 188.637 4100.51 189.609 4100.4 190.602 4100.23 192.506 4099.29 193.908 4097.61 194.853 4096.25 195.618 4094.58 196 4092.61 196 4091.09 196 4089.21 195.705 4087 195.115L4088.09 191.299C4090.13 192.265 4091.74 192.741 4092.91 192.741 4093.36 192.741 4093.78 192.593 4094.16 192.305 4094.54 192.024 4094.75 191.661 4094.79 191.199 4094.84 190.602 4094.53 189.904 4093.84 189.099 4093.19 188.389 4092.54 187.658 4091.9 186.933 4091.21 185.994 4090.91 185.022 4091 184.043 4091.17 182.246 4092.11 180.911 4093.84 180.039 4095.18 179.342 4096.79 179 4098.69 179 4098.97 179 4100.4 179.154 4103 179.496" fill="#666666" fill-rule="evenodd"/><path d="M4132 172.692 4130.98 176.117C4129.64 175.512 4128.4 175.199 4127.27 175.199 4126.16 175.199 4125.35 175.619 4124.81 176.443 4124.56 176.843 4124.25 177.741 4123.84 179.177L4128.14 179.177 4127.14 182.39 4122.91 182.39 4117.87 199 4112 199 4118.03 179.177C4118.84 176.969 4120.09 175.226 4121.77 173.956 4123.53 172.652 4125.55 172 4127.85 172 4129.34 172.007 4130.72 172.24 4132 172.692" fill="#666666" fill-rule="evenodd"/><path d="M4137.98 189.972C4136.98 191.693 4135.8 192.557 4134.42 192.557 4133.71 192.557 4133.19 192.229 4132.87 191.579 4132.6 191.044 4132.51 190.367 4132.59 189.563 4132.73 187.929 4133.21 186.422 4134.01 185.008 4134.99 183.3 4136.18 182.443 4137.58 182.443 4138.31 182.443 4138.83 182.751 4139.15 183.401 4139.41 183.93 4139.49 184.606 4139.41 185.451 4139.26 187.038 4138.79 188.552 4137.98 189.972M4143.33 180.306C4142.22 179.429 4140.78 179 4139.02 179 4136.12 179 4133.46 180.152 4131.06 182.47 4128.65 184.781 4127.31 187.48 4127.03 190.554 4126.87 192.323 4127.41 193.689 4128.67 194.68 4129.79 195.551 4131.22 196 4132.98 196 4135.84 196 4138.49 194.815 4140.91 192.47 4143.34 190.119 4144.69 187.447 4144.97 184.426 4145.14 182.671 4144.58 181.304 4143.33 180.306" fill="#666666" fill-rule="evenodd"/><path d="M4163 179.181 4161.46 184.159C4161.11 183.779 4160.09 183.798 4159.67 183.798 4158.73 183.798 4157.41 184.624 4155.72 186.288 4154.11 187.868 4153.15 189.158 4152.87 190.125L4151.45 195 4146 195 4150.69 179.039 4156.09 179.039 4153.7 185.972 4154.04 185.972C4154.94 184.256 4156.04 182.773 4157.28 181.477 4158.9 179.819 4160.44 179 4161.86 179 4162.4 179.007 4162.65 178.962 4163 179.181" fill="#666666" fill-rule="evenodd"/><path d="M4185 179.391 4184.05 182.615 4181.35 182.615C4180.91 183.98 4180.48 185.338 4180.05 186.682 4179.55 188.334 4179.23 189.706 4179.14 190.816 4179.03 191.866 4179.41 192.408 4180.26 192.408 4180.77 192.408 4181.37 192.187 4182.05 191.732L4181.04 195.271C4179.25 195.752 4177.83 196 4176.82 196 4175.64 196 4174.71 195.732 4174.02 195.197 4173.24 194.602 4172.91 193.706 4173.02 192.548 4173.14 191.237 4173.53 189.558 4174.17 187.518 4174.71 185.88 4177.43 176.836 4177.43 176.836L4183.28 176 4182.29 179.384 4185 179.384Z" fill="#666666" fill-rule="evenodd"/><path d="M4211.65 186.844C4211.92 185.879 4212.38 184.995 4213.03 184.158 4213.83 183.146 4214.65 182.631 4215.52 182.631 4216.33 182.631 4216.7 183.026 4216.61 183.843 4216.43 185.852 4214.76 186.844 4211.65 186.844M4213.67 192.557C4211.71 192.557 4210.79 191.733 4210.93 190.092 4213.31 190.092 4215.62 189.442 4217.86 188.15 4220.39 186.663 4221.77 184.834 4221.98 182.644 4222.09 181.499 4221.73 180.608 4220.86 179.925 4220.07 179.302 4219.06 179 4217.88 179 4214.77 179 4211.93 180.152 4209.35 182.47 4206.79 184.781 4205.33 187.48 4205.03 190.554 4204.86 192.323 4205.45 193.689 4206.81 194.68 4207.98 195.551 4209.52 196 4211.4 196 4213.76 196 4216.7 195.397 4220.21 194.212L4221.43 190.179C4218.37 191.76 4215.78 192.557 4213.67 192.557" fill="#666666" fill-rule="evenodd"/><path d="M4266.26 186.844C4266.49 185.879 4266.93 184.995 4267.54 184.158 4268.29 183.146 4269.07 182.631 4269.89 182.631 4270.65 182.631 4271.01 183.026 4270.92 183.843 4270.73 185.852 4269.17 186.844 4266.26 186.844M4268.15 192.557C4266.31 192.557 4265.44 191.733 4265.58 190.092 4267.83 190.092 4270 189.442 4272.1 188.15 4274.47 186.663 4275.77 184.834 4275.98 182.644 4276.08 181.499 4275.73 180.608 4274.92 179.925 4274.17 179.302 4273.24 179 4272.13 179 4269.2 179 4266.51 180.152 4264.1 182.47 4261.68 184.781 4260.32 187.48 4260.03 190.554 4259.86 192.323 4260.42 193.689 4261.69 194.68 4262.81 195.551 4264.24 196 4266.03 196 4268.25 196 4271 195.397 4274.3 194.212L4275.45 190.179C4272.56 191.76 4270.13 192.557 4268.15 192.557" fill="#666666" fill-rule="evenodd"/><path d="M4290 179.084 4289.05 182.301 4286.34 182.301C4285.91 183.652 4285.46 185.331 4285.03 186.676 4284.52 188.328 4284.21 189.699 4284.11 190.81 4284.01 191.86 4284.39 192.401 4285.25 192.401 4285.74 192.401 4286.33 192.181 4287.02 191.726L4286.01 195.271C4284.23 195.753 4282.83 196 4281.8 196 4280.64 196 4279.71 195.733 4279.01 195.198 4278.25 194.602 4277.91 193.706 4278.02 192.549 4278.15 191.238 4278.53 189.559 4279.17 187.518 4279.69 185.88 4282.41 176.836 4282.41 176.836L4288.24 176 4287.3 179.09 4290 179.09Z" fill="#666666" fill-rule="evenodd"/><path d="M4302 179.084 4301.05 182.301 4298.37 182.301C4297.93 183.652 4297.44 185.331 4297.01 186.676 4296.5 188.328 4296.19 189.699 4296.08 190.81 4295.99 191.86 4296.36 192.401 4297.2 192.401 4297.71 192.401 4298.3 192.181 4298.99 191.726L4297.99 195.271C4296.19 195.753 4294.81 196 4293.79 196 4292.6 196 4291.69 195.733 4291.01 195.198 4290.23 194.602 4289.9 193.706 4290.02 192.549 4290.14 191.238 4290.53 189.559 4291.17 187.518 4291.68 185.88 4294.4 176.836 4294.4 176.836L4300.2 176 4299.31 179.09 4302 179.09Z" fill="#666666" fill-rule="evenodd"/><path d="M4308.24 186.844C4308.49 185.879 4308.93 184.995 4309.54 184.158 4310.28 183.146 4311.07 182.631 4311.89 182.631 4312.65 182.631 4312.99 183.026 4312.92 183.843 4312.73 185.852 4311.17 186.844 4308.24 186.844M4310.15 192.557C4308.3 192.557 4307.45 191.733 4307.58 190.092 4309.81 190.092 4311.99 189.442 4314.09 188.15 4316.48 186.663 4317.77 184.834 4317.98 182.644 4318.09 181.499 4317.73 180.608 4316.93 179.925 4316.18 179.302 4315.24 179 4314.12 179 4311.19 179 4308.51 180.152 4306.1 182.47 4303.68 184.781 4302.31 187.48 4302.03 190.554 4301.86 192.323 4302.42 193.689 4303.7 194.68 4304.81 195.551 4306.25 196 4308.03 196 4310.23 196 4313 195.397 4316.3 194.212L4317.45 190.179C4314.56 191.76 4312.13 192.557 4310.15 192.557" fill="#666666" fill-rule="evenodd"/><path d="M3964.06 186.597C3963.44 193.118 3967.45 197 3974.75 197 3978.83 197 3982.74 196.302 3986.39 195.529 3986.53 195.046 3987.29 192.494 3987.62 191.406 3987.31 191.486 3986.98 191.58 3986.98 191.58 3984.16 192.38 3980.99 193.286 3978.31 193.286 3973.88 193.286 3971.19 190.237 3971.61 185.69 3972.24 178.927 3977.58 171.714 3984.51 171.714 3987.11 171.714 3989.86 172.332 3992.7 173.521 3992.92 172.775 3993.76 169.921 3994 169.088 3991.16 168.383 3988.31 168 3985.5 168 3972.65 168.007 3964.79 178.806 3964.06 186.597" fill="#666666" fill-rule="evenodd"/><path d="M4244.24 183.801C4247.21 183.801 4250.77 184.535 4250.43 188.205 4250.13 191.562 4247.21 192.555 4244.34 192.555 4243.43 192.555 4242.6 192.528 4241.76 192.235L4244.24 183.801ZM4247.76 171.976C4248.3 171.799 4249.06 171.663 4249.67 171.663 4251.34 171.663 4253.52 171.881 4253.33 174.022 4252.96 177.984 4249.24 179.411 4247.78 179.411L4245.61 179.411 4247.76 171.976ZM4234 196 4247.28 196C4250.34 196 4256.62 194.064 4257.17 188.056 4257.51 184.413 4254.54 182.435 4251.49 181.586L4251.5 181.504C4255.31 180.546 4259.59 177.576 4259.97 173.383 4260.47 167.959 4254.46 168 4250.57 168L4241.98 168 4234 196Z" fill="#666666" fill-rule="evenodd"/><path d="M4336 179.336 4334.17 184.162C4333.75 183.929 4332.93 183.794 4332.52 183.794 4331.57 183.794 4330.27 184.62 4328.61 186.284 4327.02 187.865 4326.08 189.155 4325.8 190.123L4324.39 195 4319 195 4323.6 179.058 4328.93 179.058 4326.61 185.974 4326.95 185.974C4327.84 184.258 4328.9 182.774 4330.15 181.478 4331.73 179.82 4333.25 179 4334.68 179 4335.2 178.994 4335.65 179.097 4336 179.336" fill="#666666" fill-rule="evenodd"/><path d="M4045.31 195 4039.77 194.987C4039.77 194.987 4042.66 186.227 4042.9 184.379 4042.9 184.379 4043.02 183.792 4042.63 183.934 4042.24 184.063 4041 185.177 4039.51 186.813 4038.03 188.456 4037.21 189.557 4037.04 190.124L4035.59 194.994 4030 194.994 4034.78 179.013 4040.3 179.013 4037.89 185.976 4038.25 185.976C4039.18 184.269 4040.27 182.755 4041.55 181.48 4043.22 179.825 4044.78 179 4046.24 179 4047.17 179 4047.91 179.309 4048.43 179.94 4048.78 180.379 4049.3 181.235 4048.78 183.142L4045.31 195Z" fill="#666666" fill-rule="evenodd"/><path d="M4000.77 194.987C4000.77 194.987 4003.55 185.741 4003.91 184.032 4003.91 184.032 4004.11 183.38 4003.64 183.573 4003.18 183.753 4002.01 184.857 4000.53 186.553 3999.03 188.243 3998.21 189.393 3998.04 189.959L3996.59 195 3991 195 3997.65 172 4003.2 172C4001.95 176.596 4000.5 181.146 3998.87 185.682L3999.23 185.682C4000.16 183.919 4001.25 182.363 4002.54 181.032 4004.21 179.323 4005.77 178.465 4007.24 178.465 4008.18 178.465 4008.92 178.791 4009.43 179.449 4009.78 179.895 4010.3 180.786 4009.79 182.755L4006.31 194.993 4000.77 194.993Z" fill="#666666" fill-rule="evenodd"/><path d="M4194.77 194.993C4194.77 194.993 4197.55 185.735 4197.9 184.032 4197.9 184.032 4198.11 183.38 4197.64 183.573 4197.17 183.753 4196.01 184.863 4194.52 186.546 4193.03 188.243 4192.21 189.38 4192.04 189.965L4190.58 194.993 4185 194.993 4191.65 172 4197.2 172C4195.95 176.583 4194.51 181.146 4192.87 185.688L4193.23 185.688C4194.16 183.919 4195.25 182.363 4196.54 181.039 4198.21 179.336 4199.78 178.478 4201.24 178.478 4202.17 178.478 4202.9 178.804 4203.43 179.456 4203.78 179.908 4204.3 180.793 4203.79 182.755L4200.31 195 4194.77 195Z" fill="#666666" fill-rule="evenodd"/><path d="M4005.34 154 3964 154 3984.67 118 4026 118Z" fill="#FF0000" fill-rule="evenodd"/><path d="M4046.66 154 4088 154 4067.33 118 4026 118Z" fill="#FF0000" fill-rule="evenodd"/><path d="M4047 82 4026 46.0001 4005 82 4026 118Z" fill="#FF0000" fill-rule="evenodd"/><path d="M4106.98 138.592 4123.45 138.592 4123.45 132.535 4106.98 132.535 4106.98 125.064 4125.52 125.064 4125.52 119 4106.98 119 4100 119 4100 125.064 4100 147.916 4100 154 4106.98 154 4126 154 4126 147.916 4106.98 147.916Z" fill-rule="evenodd"/><path d="M4106.63 86.9827 4114.08 113 4114.38 113 4120.62 113 4120.92 113 4128.37 86.9827 4128.37 113 4135 113 4135 78 4131.38 78 4128.27 78 4124.85 78 4117.5 102.569 4110.15 78 4106.75 78 4103.62 78 4100 78 4100 113 4106.63 113Z" fill-rule="evenodd"/><path d="M4260 78 4267 78 4267 113 4260 113Z" fill-rule="evenodd"/><path d="M4265 119 4272 119 4272 154 4265 154Z" fill-rule="evenodd"/><path d="M4329 78 4336 78 4336 113 4329 113Z" fill-rule="evenodd"/><path d="M4137 78 4144 78 4144 113 4137 113Z" fill-rule="evenodd"/><path d="M4319.03 91.6525 4304.97 91.6525 4304.97 78 4298 78 4298 113 4304.97 113 4304.97 97.7238 4319.03 97.7238 4319.03 113 4326 113 4326 78 4319.03 78Z" fill-rule="evenodd"/><path d="M4154.45 113 4161.55 113 4161.55 84.0648 4170 84.0648 4170 78 4161.55 78 4154.45 78 4146 78 4146 84.0648 4154.45 84.0648Z" fill-rule="evenodd"/><path d="M4218.45 154 4225.55 154 4225.55 125.064 4234 125.064 4234 119 4225.55 119 4218.45 119 4210 119 4210 125.064 4218.45 125.064Z" fill-rule="evenodd"/><path d="M4213.93 114C4222.98 114 4228 109.915 4228 102.095L4228 78 4220.89 78 4220.89 102.728C4220.89 105.742 4218.34 108.256 4213.92 108.256 4208.56 108.256 4206.99 105.29 4206.99 102.728L4206.99 78 4200 78 4200 102.095C4200 110.501 4205.27 114 4213.93 114" fill-rule="evenodd"/><path d="M4160.98 138.592 4177.47 138.592 4177.47 132.535 4160.98 132.535 4160.98 125.064 4179.52 125.064 4179.52 119 4160.98 119 4154 119 4154 125.064 4154 147.916 4154 154 4160.98 154 4180 154 4180 147.916 4160.98 147.916Z" fill-rule="evenodd"/><path d="M4237.3 113 4247.44 113C4254.06 113 4258 109.058 4258 103.553 4258 99.0983 4254.75 95.2776 4251.22 94.3951 4254.3 93.62 4256.78 90.4663 4256.78 86.6187 4256.78 81.4568 4252.96 78 4245.83 78L4237.3 78 4230.03 78 4230 78 4230 113 4230.03 113 4237.3 113ZM4245.34 107.717 4237.04 107.717 4237.04 97.5619 4245.25 97.5619C4248.2 97.5619 4250.71 99.2602 4250.71 102.656 4250.71 105.527 4248.44 107.717 4245.34 107.717M4245.85 83.5662C4247.79 83.5662 4249.95 85.3584 4249.95 87.7102 4249.95 89.8058 4248.44 92.1104 4245.45 92.1104L4237.03 92.1104 4237.03 83.5662 4245.85 83.5662Z" fill-rule="evenodd"/><path d="M4257.41 137.244C4260.44 136.335 4263.71 133.64 4263.71 128.789 4263.71 122.55 4259.44 119 4252.18 119L4243.18 119 4236.06 119 4236 119 4236 154 4243.18 154 4243.18 140.209 4249.27 140.209C4252.95 140.209 4254.97 142.089 4255.57 144.582 4256.23 147.344 4256.07 151.447 4256.78 154L4264 154C4263.3 151.319 4262.89 147.674 4262.73 144.804 4262.46 140.047 4259.93 138.167 4257.41 137.244M4243.18 134.583 4243.18 125.07 4251.81 125.07C4254.73 125.07 4256.67 127.078 4256.67 129.847 4256.67 131.781 4254.95 134.583 4252.03 134.583L4243.18 134.583Z" fill-rule="evenodd"/><path d="M4135.21 119 4128 119 4128 147.916 4128 154 4135.21 154 4152 154 4152 147.916 4135.21 147.916Z" fill-rule="evenodd"/><path d="M4181.88 98.2992C4187.52 99.2907 4190.71 100.336 4190.71 103.735 4190.71 106.028 4188.47 108.207 4183.78 108.207 4179.12 108.207 4176.73 105.529 4176.73 102.339L4170 102.339C4170 108.436 4173.9 114 4184.09 114 4193.79 114 4198 108.821 4198 102.892 4198 97.3683 4194.41 93.8748 4188.01 92.6 4181.86 91.3793 4177.62 91.1228 4177.62 87.1843 4177.62 84.4796 4180.07 82.8743 4183.84 82.8743 4187.85 82.8743 4190.14 84.8639 4190.14 88.2227L4196.94 88.2227C4196.94 82.6924 4192.79 77 4183.57 77 4177.2 77 4170.6 80.7093 4170.6 87.6362 4170.61 93.4498 4174.84 97.0513 4181.88 98.2992" fill-rule="evenodd"/><path d="M4280.32 98.2992C4286.14 99.2907 4289.45 100.336 4289.45 103.735 4289.45 106.028 4287.12 108.207 4282.29 108.207 4277.45 108.207 4274.97 105.529 4274.97 102.339L4268 102.339C4268 108.436 4272.05 114 4282.6 114 4292.65 114 4297 108.821 4297 102.892 4297 97.3683 4293.29 93.8748 4286.65 92.6 4280.29 91.3793 4275.91 91.1228 4275.91 87.1843 4275.91 84.4796 4278.44 82.8743 4282.35 82.8743 4286.49 82.8743 4288.87 84.8639 4288.87 88.2227L4295.9 88.2227C4295.9 82.6924 4291.6 77 4282.06 77 4275.47 77 4268.64 80.7093 4268.64 87.6362 4268.64 93.4498 4273.03 97.0513 4280.32 98.2992" fill-rule="evenodd"/><path d="M4196.21 148.769C4190.55 148.769 4187.25 143.13 4187.25 136.401 4187.25 129.673 4190.44 124.02 4196.21 124.02 4200.5 124.02 4202.72 126.744 4203.67 130.081L4210.95 130.081C4209.76 123.149 4204.44 118 4196.02 118 4185.39 118 4180 126.288 4180 136.503 4180 146.719 4185.6 155 4196.02 155 4204.34 155 4209.97 150.056 4211 142.51L4203.67 142.51C4202.72 146.065 4200.43 148.769 4196.21 148.769" fill-rule="evenodd"/><path d="M4290.2 148.769C4284.55 148.769 4281.25 143.13 4281.25 136.401 4281.25 129.673 4284.43 124.02 4290.2 124.02 4294.51 124.02 4296.71 126.744 4297.66 130.081L4304.95 130.081C4303.76 123.149 4298.43 118 4290 118 4279.38 118 4274 126.288 4274 136.503 4274 146.719 4279.59 155 4290 155 4298.34 155 4303.96 150.056 4305 142.51L4297.66 142.51C4296.71 146.065 4294.42 148.769 4290.2 148.769" fill-rule="evenodd"/><rect x="3609.5" y="45.4999" width="286" height="68.0001" stroke="#FF0000" stroke-width="6.875" stroke-miterlimit="8" fill="none"/><text fill="#FF0000" font-family="Yu Gothic,Yu Gothic_MSFontService,sans-serif" font-weight="700" font-size="50" transform="matrix(1 0 0 1 3676.44 102)">社外秘</text></g></svg>